<svg width="240mm" height="60mm" version="1.1" viewBox="0 0 266.67 66.667" xmlns="http://www.w3.org/2000/svg">
 <g transform="translate(114.86 -107.82)">
  <g transform="matrix(.24261 0 0 -.24261 -101.74 333.76)" stroke="#000" stroke-width=".28346">
   <g transform="scale(.1)" stroke="#000" stroke-width="2.8346">
    <path d="m1916.9 210.49c8.58-3.433 12.02-12.004 20.6-12.004 10.28 0 17.16-1.726 20.59 1.711 5.14 1.719 10.3 5.137 8.57-1.711-1.7-6.871-15.44-22.312-22.31-22.312-6.85 0-29.18 6.863-32.6 17.152-3.43 10.305-5.15 22.309 5.15 17.164m39.46-54.918c-6.85-1.707-13.72-6.871-12.01-10.289 1.72-1.722 8.59-3.433 15.44-1.722 6.87 3.433 12.02 6.863 12.02 10.304-1.71 3.434-8.58 3.434-15.45 1.707m-3.42 89.246c-5.16 8.567-12.03 13.723-15.44 12.004-1.73-1.711 0-10.301 5.14-18.875 5.14-8.582 12.02-15.453 13.72-12.015 3.43 1.711 1.73 10.304-3.42 18.886m13.72 46.332c-5.14 5.149-10.3 6.864-12 5.149-1.72-3.434 1.7-8.586 6.86-12.016 5.14-5.152 10.29-6.859 12.01-3.441 1.72 1.726 0 6.871-6.87 10.308m-163.01 538.84 1.7-3.426s84.09 6.852 85.81 3.426c0-5.144 32.61-147.59 25.74-149.3-5.15-1.715-70.36-44.621-65.21-53.195 5.14-8.586 12.01 1.707 22.32 5.145 10.28 3.429 60.05 3.429 60.05-1.715 0-5.157 13.72-106.4 10.29-108.11-5.15 0-15.43-12.011-10.29-22.308 3.44-10.297 20.6-13.731 22.3-24.035 0-8.575-8.58-42.895-8.58-51.465 0-8.578 24.03-58.356 34.32-85.813 8.59-27.449 17.18-66.929 10.31-68.64-5.15-1.727-30.89-1.727-32.62-6.867-1.7-5.145 12.02-30.883 18.89-34.321 6.85-5.148 17.16-20.59 17.16-37.75 0-18.875 8.58-92.668-3.43-92.668-12.02 0-58.35-1.7187-60.06 3.4258-3.43 5.16-12.01 24.035-15.45 24.035-3.43 0 1.71-17.164 0-20.601-1.73-3.434-10.3-1.707-12.01 3.437 0 3.434-22.3 51.481-32.61 58.344-10.3 8.586-15.45 8.586-12.02 1.719 1.72-5.145 37.75-58.356 32.61-65.207-5.14-6.8715-13.72-1.727-13.72-1.727s1.71 12.016-5.14 20.602c-5.16 10.289-34.34 41.187-37.77 48.039-3.42 6.871-8.58 25.746-3.42 30.902 5.14 5.141 6.85 8.574 6.85 12.012 0 5.144-22.3 29.164 3.43 46.328 25.75 17.168 75.51 51.488 72.07 87.519-1.7 34.313-10.28 82.371-10.28 92.668 0 8.578 8.58 17.16 6.86 27.453-1.72 10.301-17.17 20.602-27.46 29.176-10.28 6.867-72.06 36.043-78.94 60.063-6.87 22.304 0 80.656 3.44 104.68 3.44 22.309 3.44 94.379 1.71 109.83 0 15.438-10.29 58.344-6.85 58.344m48.04-398.12c0-17.164 1.72-29.168 6.87-29.168 5.14 0 24.03 12.004 22.3 20.582 0 8.586-27.45 24.035-29.17 8.586m-13.73 6.852c-1.72-12.008 8.58-54.903 18.87-51.473 10.31 1.715 29.19 22.313 30.9 30.887 1.71 6.875-1.71 22.312-12.01 27.457-12.02 3.433-8.58 3.433-18.89 5.152-8.56 1.715-15.43-1.719-18.87-12.023m-137.29 70.367c-17.15-32.613-66.91-113.26-96.08-137.28-29.2-22.309-109.84-75.5-175.06-82.371-63.48-5.145-212.78-6.86-229.96-8.586-17.14-1.711-15.43-8.578-20.57-18.875-5.16-10.289-8.58-90.953 3.43-99.524 13.73-6.871 49.77-18.882 49.77-13.742-1.73 5.164-22.32 27.473-29.19 37.758l-5.15 10.301s37.76 39.476 53.21 48.058c15.44 8.567 39.46 12.004 48.05 6.86 8.58-5.157 42.89-34.325 48.05-37.75 3.42-3.438 84.09 56.625 94.38 58.336 8.57 1.726 15.45 1.726 24.03-12.008 8.57-15.438 24.01-30.891 27.44-29.18 3.44 1.727 61.8 48.055 63.51 42.914 0-5.164 32.61-48.058 37.75-44.625 3.43 3.438 15.45 12.016 15.45 12.016s-39.48 46.332-36.05 54.918c1.71 6.859 94.39 70.351 118.41 113.26 25.75 41.183 36.04 80.652 42.91 80.652 6.85 0 13.72-20.598 15.44-51.492 1.72-29.16-5.15-113.25-30.89-156.15-24.04-41.187-41.17-54.925-41.17-60.074 1.71-3.422 61.76-78.933 58.32-92.668-5.14-12.004-53.18-15.437-84.08-15.437-29.17 0-80.66-6.856-106.4 6.867-25.73 13.734-56.63 39.469-63.48 36.043-8.59-5.16-46.33-36.043-61.78-36.043-15.46 0-27.45-3.434-25.75-12.012 0-8.582 24.04-13.73 32.62-13.73s439.31 1.7149 439.31 5.1484c0 3.438-8.58 34.328-27.47 48.039-20.59 15.461-25.74 41.188-22.3 51.496 5.14 12.004 12.02 6.86 6.85 15.438-5.14 8.582-17.14 32.605 3.44 46.332 20.61 13.73 87.51 54.918 75.5 114.98-10.29 60.067-8.58 66.934-5.15 73.797 3.44 6.863 3.44 27.457-8.57 32.602-12.02 6.867-92.66 36.043-96.1 85.804-1.71 48.051 8.58 180.19 8.58 190.48 0 10.305-1.71 68.64-13.73 58.344-13.73-12.016-22.3-20.59-34.3-15.446-12.04 3.43-15.46 10.301-20.62 8.574-6.85-3.414-10.29-3.414-10.29-8.574 0-5.144-1.71-109.82-1.71-154.45-1.72-42.887-5.14-106.39-20.6-139m-8.58-171.6c-3.43-1.726-54.9-48.058-53.19-54.918 1.71-5.144 5.15-12.015 10.29-6.871 3.43 5.145 44.62 44.621 46.32 53.203 1.74 8.586-1.7 13.731-5.13 10.293-1.72-5.144 1.71-1.707 1.71-1.707m48.05 30.883c-10.29-46.324-37.75-92.672-66.92-120.13-30.89-27.453-75.51-63.496-84.08-63.496-8.59-1.707-22.32 13.742-29.18 25.746-6.87 12.004-12.01 12.004-22.32 6.863-10.28-6.863-27.44-8.578-25.73 5.141 1.72 12.016 34.31 37.762 39.48 36.047 3.43 0 29.16-27.465 29.16-37.754 0-10.297 5.15-13.73 10.29-10.297 5.17 3.438 75.51 51.477 96.1 85.809 20.59 32.601 24.03 37.75 24.03 53.191 1.72 17.16 5.16 25.75-3.44 20.594-6.86-3.434-82.37-73.785-84.08-80.656-1.72-8.586 8.58-18.875 6.87-25.742-3.43-6.864-5.16 1.714-17.18 5.14-11.99 3.438-22.3 12.016-20.57 22.324 0 10.293 46.33 42.899 58.33 54.911 12.01 12.007 53.2 56.636 66.94 80.648 13.72 25.746 15.43 30.894 17.16 27.465 1.7-3.434 5.14-80.66 3.43-87.524-1.73-6.855 1.71 1.719 1.71 1.719m-193.92-159.59c3.44-3.441 30.9-37.761 39.48-37.761 8.58-1.707 34.31 15.445 39.46 18.875 5.16 3.437 13.74 0 17.17-5.145 3.42-5.144 12.01-12.004 5.15-15.437-6.87-1.719-63.51-8.582-94.39 5.144-30.88 13.731-25.73 18.875-22.31 22.309 3.43 3.437 13.73 13.73 15.44 12.015m-164.72 6.86c13.71 8.582 60.05 46.332 65.19 44.621 5.15-3.434 66.94-66.93 75.52-78.934 6.85-13.734 29.18-24.023 51.47-25.75 22.33 0 94.39 0 94.39 6.871-1.72 8.571-13.73 24.016-15.45 29.172 0 6.871 5.15 17.16 10.29 13.719 5.16-1.703 49.78-56.633 53.22-65.199 3.42-8.582 1.71-8.582-1.73-8.582-3.43 0-145.85-6.867-161.31-1.727-15.45 3.438-51.47 37.762-72.07 56.633-20.59 18.875-24.02 27.469-29.18 36.035-5.15 6.871-12 3.438-17.14-1.707-5.17-3.434-37.78-22.301-49.77-22.301-10.31 0-17.18 8.571-3.43 17.149m61.75-5.145c-3.41 0-54.9-30.89-54.9-36.039 1.72-3.437 10.3-6.863 17.15-5.144 6.87 3.433 48.06 25.746 46.34 29.179 0 1.711-5.15 13.715-8.59 12.004m-96.08-63.496c6.86-3.433 32.6-22.308 29.17-22.308-3.44 0-39.47 12.007-46.34 13.726-6.87 0 12.01 10.289 17.17 8.582m-84.09 48.059c1.73 3.433 18.86 13.722 29.17 6.863 10.3-8.59 20.6-12.027 13.75-17.172-6.88-3.422-30.91-12.004-36.05-6.859-6.87 3.437-6.87 15.441-6.87 17.168m-1.71 42.894c-6.87-5.144-42.91-39.461-42.91-44.621-1.71-6.867 22.3-41.187 36.04-46.332 12.01-5.144 36.03-5.144 44.62-3.433 8.58 0 18.87 1.722 18.87 6.863 0 5.148-5.14 13.738-11.99 13.738-6.88 0-27.47-6.863-39.49 1.707-12.01 8.582-25.75 20.59-24.02 27.457 3.43 6.871 37.75 29.168 44.62 24.027 6.85-3.425 75.5-70.359 85.79-77.218 8.6-6.871 46.35-12.016 65.21 3.426 20.6 13.738 24.03 17.164 25.76 20.601 0 3.426-12.03 15.438-17.18 13.723-3.44-3.434-24.01-25.746-36.04-24.02-12 0-48.04 22.309-61.76 37.75-12.02 15.442-46.34 49.766-63.51 49.766-17.14 0-17.14 0-24.01-3.434m300.3 1518.7c-1.71-8.58-82.37-434.17-175.03-710.46-94.39-276.27-108.11-356.94-132.14-533.69-22.3-176.75-17.16-211.07-6.87-211.07 8.58 0 156.17-3.429 157.87 10.301 1.71 15.445 1.71 288.28 39.48 447.89 37.76 157.88 138.99 533.71 154.46 634.95 13.7 101.24 44.61 372.38 44.61 410.15 0 37.75-5.15 46.33-18.89 32.59-13.72-13.73-61.76-70.36-63.49-80.65m-797.97-1659.4c5.16 22.308 8.594 39.464 5.16 41.184-3.433 0-10.304-17.156-15.449-37.75-6.871-22.297-8.578-41.184-5.168-41.184 3.442 0 10.313 15.445 15.457 37.75m290.03 104.69 3.41-73.797s12.02 5.145 48.06-5.144c36.05-10.297 65.22-25.746 87.52-24.028 22.3 1.7148 44.62 22.309 29.17 29.172-15.45 6.871-168.16 82.371-168.16 73.797m-87.536 63.484c-6.871-5.144-142.43-130.41-133.85-132.14 10.285-1.711 32.605 3.429 46.328-6.856 13.742-12.019 99.535-22.308 125.26 0 25.76 20.586 24.04 25.731 25.76 41.18 1.71 17.156 3.42 77.23-8.58 85.797-13.74 10.301-48.062 18.879-54.926 12.015m-133.85 159.61c0-8.578-56.621-149.31-66.922-193.93-10.313-44.617-18.887-46.332-5.145-54.902 12.012-8.586 24.008-27.473 32.59-20.602 8.59 6.871 181.92 144.14 185.34 159.6 3.434 15.441-17.16 29.164-22.305 36.023-5.164 8.598-17.156 18.887-41.187 24.043-24.028 5.141-82.371 49.766-82.371 49.766m72.066-25.75c-18.867 10.301-34.316 15.445-34.316 13.73-1.711-1.715 12.015-12.015 30.898-20.601 18.867-10.297 34.317-17.145 34.317-13.715 1.73 1.711-12.02 10.289-30.899 20.586m29.192 257.41s63.468-18.875 65.195-29.168c1.71-10.301-8.582-108.11-32.606-163.03-22.304-56.633-15.453-65.211-42.902-53.196-27.441 10.301-70.355 30.879-82.367 46.332-12.016 13.723-5.145 22.301-22.305 32.606-18.887 12.004-39.476 34.32-42.894 51.484-3.434 17.149 5.144 56.629 5.144 56.629s78.938 18.875 113.25 37.75c32.609 17.16 39.481 20.594 39.481 20.594m89.225 60.062c-8.58-3.429-58.347-37.75-54.909-42.898 3.43-5.141 34.309-13.73 41.179-6.867 6.88 6.867 22.31 53.191 13.73 49.765m-238.54-87.523c18.883 5.152 29.188 0 66.938 15.445 37.757 15.45 42.898 18.875 53.187 24.039 10.305 3.418 10.305-5.164 0-10.308-10.289-5.149-80.648-41.184-101.24-41.184-22.301 0-37.746 6.871-18.883 12.008m30.902 90.949c5.141-1.711 56.614-37.754 68.629-39.461 12.032-1.715 1.727-10.297-6.851-13.73-10.305-3.438-82.375-29.172-84.098-22.313-1.711 5.164-1.711 32.606 6.863 39.477 8.586 6.855 8.586 6.855 3.438 15.441-6.871 8.582 5.148 20.586 12.019 20.586m190.48 29.18c-20.589 3.437-108.11-20.602-120.12-27.457-12.016-6.867 6.871-10.293 17.156-17.164 10.289-5.145 22.305-15.445 30.903-8.574 10.285 6.863 92.655 51.484 72.065 53.195m-169.89 8.578c17.157 6.863 135.57 10.297 132.14 5.152-1.727-5.152-85.809-30.878-102.97-29.168-18.887 1.707-48.035 18.875-29.172 24.016m85.793 25.75c3.434 1.715 109.84 18.867 116.69 15.434 6.87-3.43 18.88-10.285 6.87-17.157-12.01-6.859-123.56-6.859-123.56-3.421-1.711 5.144-3.422 5.144 0 5.144m-360.36 554.29v-3.44s-82.371 96.1-87.535 106.4c-6.852 12.02-15.449 41.19-27.442 65.2-10.308 24.03-6.871 29.19-12.015 24.03-5.145-3.42-37.75-94.38-25.742-164.73 13.726-72.07 39.464-175.04 90.937-229.95 51.492-56.64 66.941-58.35 58.363-61.78-10.308-3.44-54.929 10.3-89.242 56.62-36.043 44.61-53.203 70.36-58.348 66.93-3.437-3.43 56.637-82.37 75.524-97.82 18.863-15.43 75.5-51.48 99.508-54.92 24.031-5.14 77.234-24.02 96.117-30.89 18.867-5.14 120.12-56.623 116.69-63.483-5.156-6.871-30.894 1.715-37.746 5.156-5.168 1.704-8.597 3.418-8.597-5.156 0-6.871 17.175-51.476 27.461-53.203 10.289 0 89.242-8.578 120.12-5.144 30.902 3.437 104.67 5.144 106.4-6.872 3.43-12.003-78.937-42.894-101.26-44.609-24.012 0-41.164 6.859-36.027 8.574 5.144 1.719 96.097 18.879 101.24 25.742 3.434 6.872 0 6.872-5.141 6.872-5.16-1.719-133.86 1.714-137.28-5.145-5.144-6.871-36.043-77.234-24.031-85.809 13.746-6.859 149.3 17.168 180.2 17.168 29.17 1.707 60.05 3.414 66.92 12.012 8.58 8.57 13.72 41.18 12.02 53.192-1.73 13.722-12.02 24.019-8.58 30.89 1.71 6.86 18.86 68.629 18.86 84.082 0 17.163 0 24.033-18.86 32.603-18.88 6.87-104.7 90.96-221.38 151.02-118.41 60.06-226.51 108.11-260.84 130.42-32.605 22.31-87.516 68.64-94.387 78.94-8.578 10.29-3.437 17.16 0 15.45 3.43-3.44 80.664-70.37 82.371-65.22 1.727 6.87 3.438 3.43 1.727 6.87m178.47 315.75c13.726 0 94.371-13.72 113.25-12.01 18.867 3.44 13.726 3.44 10.312-6.87-1.734-8.58-32.629-25.73-60.078-17.15-27.445 10.3-37.746-3.44-46.332-15.44-8.598-10.3-30.895 49.76-17.156 51.47m-10.305 53.19c13.723 0 24.031 8.59 30.902 12.03 6.852 5.15 20.59-3.44 6.852-13.74-13.723-10.3-39.461-27.45-42.899-20.59-1.71 5.15-10.3 22.3 5.145 22.3m-13.719-257.4c-6.871 15.44-15.453 25.74-18.886 24.02-1.711-1.71 1.726-13.72 8.578-29.17 6.871-13.73 15.449-24.02 18.882-22.3 1.711 1.7-1.71 13.72-8.574 27.45m-80.664 327.77c-1.715 1.72-128.71-1.71-128.71-5.15 0-3.43-1.711-12-8.578-18.87-6.852-6.87-10.293-10.3-6.852-13.74 3.418-3.43 8.559 0 5.145-8.57-1.727-6.86 0-6.86-5.145-5.16-5.144 1.73-8.585-1.7-12.015-8.58-1.727-8.58 0-20.58 5.144-25.74 5.145-3.43-3.441-6.86-8.582-6.86-3.433 0-8.578 0-8.578-6.86 0-6.87 8.578-18.87 3.434-20.6-5.16-1.71-8.594 1.73-10.305-6.86-1.726-8.58-10.285-32.6-5.144-36.04 6.855-3.43 12.015-1.72 6.855-6.87-5.148-5.13-11.996 1.73-15.43-13.73-3.437-15.43-15.453-41.18 8.575-70.34 24.031-27.47 80.652-116.7 92.66-133.86 12.015-15.44 54.929-84.08 72.09-89.25 15.433-3.42 116.69-61.77 116.69-56.62 1.711 3.43-80.664 92.67-113.27 121.85-30.883 27.45-102.95 89.22-104.67 102.95-3.438 13.74-3.438 15.46 3.433 8.59 5.161-5.15 114.98-111.54 135.58-125.27 20.589-15.45 82.371-80.65 97.8-102.97 15.453-20.6 29.176-32.61 30.903-30.88 1.707 3.42-41.184 113.25-66.922 164.73-27.465 51.49-41.192 73.8-36.047 73.8 5.144 0 46.332-63.5 73.793-126.99 27.449-63.5 51.48-125.27 54.91-127 1.727 0 5.168 1.73 6.871 5.15 1.711 3.44-3.43 73.8-10.301 85.82-8.586 13.71-13.726 29.16-12.019 39.46 3.433 12 22.32 66.92 25.758 84.08 3.418 15.46 10.289 54.92 3.418 63.5-8.559 8.58-51.477 25.73-77.235 97.82-27.441 72.07-29.148 73.79-29.148 73.79s-18.887-1.72-22.32 6.87c-1.711 8.57 0 8.57 6.871 13.71 6.851 5.16 6.851 3.43 8.578 6.88 0 3.43-6.871 17.16-6.871 17.16s-42.895-5.16-48.039-8.59c-3.434-3.43-12.016-1.7-10.305 6.86 0 6.87 17.16 24.04 8.578 20.6-10.289-1.72-73.797-17.16-77.215-15.43-5.14 3.42-8.574 15.43 1.715 20.58 10.289 5.14 56.633 56.63 54.91 56.63m-152.72 1.72c-18.883 0-80.661 18.88-73.793 27.46 6.855 8.58 54.91 3.44 58.347 12 3.434 10.3-42.914 25.74-56.637 36.04-13.718 10.29 1.708 17.16 27.465 25.75 25.735 8.58 25.735 18.88 5.145 18.88-22.32 0-49.766 3.41-53.199-10.3-3.438-13.74-5.145-27.45-13.743-70.37-6.855-44.61-63.468-238.53-92.644-298.58-29.188-60.07-41.188-125.28-41.188-168.18s10.289-489.08 3.418-552.58c-5.144-61.77-15.429-171.6-8.562-228.22 5.144-56.645 15.433-54.93 17.144-44.625 0 8.586 10.305 72.074 41.184 73.781 30.898 0 39.477-17.148 51.496-10.289 13.719 6.863 37.75 32.602 37.75 49.766 1.707 18.875-6.871-6.863-6.871 207.64 0 214.51-12 473.64 8.578 564.59 18.883 90.94 49.766 157.88 49.766 171.61 0 12.01 1.726 15.44-3.434 17.15-3.418 1.73-6.855 10.3 0 12.01 6.871 1.72 13.742 1.72 15.449 17.17 0 15.45 5.141 30.89 1.727 32.61-3.434 0-6.871 0-6.871 3.43 0 5.14 1.726 5.14 6.871 5.14 5.141 0 3.414 0 6.848 5.14 3.437 5.16 6.871 10.32 1.711 13.74-5.145 3.44-6.852 8.58-5.145 8.58 1.727 0 8.582-3.44 10.305 1.73 3.437 6.84 12.015 30.88 10.289 32.59-1.707 1.72-1.707 8.58 3.437 10.3 5.157 3.43 17.16 24.02 18.887 27.46 0 5.15 3.414 8.58-13.73 8.58m746.49-22.31c-6.87-13.73-5.14-17.17 1.71-20.6 6.87-1.71 176.74-89.23 178.47-85.8 1.71 1.72 10.31 12.02 1.71 17.16 8.6-5.14-175.03 102.97-181.89 89.24m36.05 44.61c1.7-3.42 8.57-42.9 18.86-41.17 12.01 0 48.04 8.57 53.2 10.29 5.14 0 8.58-10.29 12.02-17.16 3.43-8.59 18.86-29.17 32.61-24.03 15.42 5.15 36.02 17.16 44.6 20.59 6.86 3.44 8.6-5.15 8.6-8.58 0-3.42-13.74-56.63-22.33-54.9-6.87 0-166.45 73.79-168.18 78.93-3.43 5.15 20.62 39.48 20.62 36.03m197.33 12.02c-3.43-1.72-56.64-48.05-73.79-44.62-15.45 3.43-20.6 8.58-20.6-3.43 0-10.3-1.7-29.18 12.02-25.75 13.74 5.15 63.48 34.33 73.79 48.05 10.31 15.45 12.02 27.47 8.58 25.75m-46.33 32.6c-8.6-1.72 3.44-32.6-13.74-42.9-18.86-8.58-10.29-15.45-6.86-15.45 5.15 0 36.05 12.02 36.05 24.03s-5.16 36.05-15.45 34.32m-94.39 3.43c-6.85 0-20.59-3.43-20.59-8.58 0-6.87-3.44-32.6 8.59-30.87 12 1.7 24.02 1.7 24.02 10.28 0 6.86-3.44 29.17-12.02 29.17m17.16 44.62c-3.43-3.43-10.29-32.59 1.73-29.18 12.01 5.16 24.01 6.87 24.01 13.73 1.73 6.88 3.43 17.18-6.86 20.61-10.29 3.41-15.45 0-18.88-5.16m-22.3 0-24.03-37.75s22.32-3.43 27.46 6.87c5.15 12 10.29 41.18-3.43 30.88m-32.61-68.64c6.86-6.87 12.01-29.18 32.61-27.45 22.3 1.71 65.22 27.45 65.22 32.59 0 3.43 15.42-1.71 15.42-8.57-1.71-5.15-90.92-54.92-101.24-53.2-10.3 1.72-18.88 39.47-20.59 48.05s1.71 17.15 8.58 8.58m60.07 25.75c3.43 5.14 96.1 44.62 102.95 29.17 8.58-15.46 13.74-54.92 1.71-48.05-11.99 5.14-15.44 13.72-15.44 18.88 0 5.14 3.45 10.3-8.57 10.3s-65.21-22.32-68.63-29.18c-1.73-5.16-15.45 13.72-12.02 18.88m-12.03 58.33c1.73 3.44 24.05 42.91 42.91 25.75 18.89-15.45 15.45-32.62 10.31-36.03-3.43-3.43-10.31-1.73-15.47 5.14-5.14 5.14-17.14 12-25.72 5.14-10.3-6.87-12.03-1.7-12.03 0m60.07 39.48c0-10.3 20.59-60.06 29.18-54.92 10.3 5.16 36.04 3.43 39.47-5.14 3.44-10.31 8.58-54.93 17.16-51.49 6.85 3.43 22.3 44.62 22.3 53.2 0 6.86-106.38 66.93-108.11 58.35m-32.6 3.43c1.73 5.15 10.28 8.58 18.88 6.85 6.87-3.41 10.29-5.14 1.71-6.85-6.87 0-20.59-5.16-20.59 0m25.75 41.18c-3.43-3.43-15.47-17.15-10.31-20.59 5.15-3.43 132.14-73.78 135.58-68.64 3.43 5.14 13.72 22.31 5.14 25.75-6.87 3.42-125.27 66.91-130.41 63.48m-211.09-475.35c1.72 34.32 1.72 63.5 0 63.5s-5.15-29.18-6.86-63.5c-1.72-34.31-1.72-61.77 0-61.77 1.71-1.73 5.14 27.46 6.86 61.77m97.82 29.17c1.72-6.86 10.28-49.76-15.45-92.67-27.45-44.6-54.91-82.37-49.77-78.93 6.88 1.71 85.81 78.93 80.67 123.55-5.17 46.34-17.16 53.2-15.45 48.05m-298.6 312.33c-1.707-10.3-29.168-274.57 1.734-377.53 29.148-104.69 73.778-175.05 92.658-176.75 18.87-3.44 48.04 15.44 56.62 22.31 6.87 6.85 8.59 12 17.18 10.29 10.28 0 130.41 25.73 171.6 90.96 39.47 63.48 85.8 204.2 82.36 209.35-3.43 5.15-175.03 87.51-175.03 87.51s-32.6-78.93-30.9-84.08c3.44-3.43 46.34-94.39 32.61-159.59-13.72-63.5-20.59-65.22-22.32-58.36-1.71 8.6 17.18 65.22 5.16 123.56-12.01 56.64-15.45 51.49-15.45 41.19 0-10.29-5.14-147.58-18.86-156.15-13.74-8.6-13.74 5.14-13.74 13.72 0 10.3 10.3 94.38 3.43 96.1-6.87 0-41.19-92.67-49.76-92.67-8.59 0-6.85 6.87-3.42 15.44 3.42 10.3 116.69 338.07 113.25 343.22-1.72 3.43-15.45 12.01-24.02 5.15-8.58-5.15-5.15-12.02-12.02-8.57-5.14 5.15-18.88 15.43-27.46 8.57-10.29-8.57-10.29-13.73-13.73-10.3-3.43 3.44-15.45 25.74-25.73 13.73-8.58-10.29-13.72-3.43-15.46 1.71-3.43 5.15-24.02 24.04-30.88 17.17-5.14-8.59-13.74-18.88-15.44-8.59 0 10.3 1.7 12.02-5.15 13.73-5.16 3.43-20.59 12.02-24.03 5.15-3.43-6.86-5.14 3.43-10.28 5.16-5.16 0-8.6 1.71-12.04-5.16-1.71-8.58-5.14 0-8.574 5.16-5.148 6.86-22.308 17.15-22.308 8.57m317.47 561.15c-13.73-15.44-126.98-44.62-147.58-54.91-18.88-12.02-30.88-20.59-36.02-17.16-3.43 3.43-10.31 3.43 3.42 13.73 12.01 8.58 30.9 37.76 41.18 46.33 12.02 8.58 12.02 13.74-3.43 10.3-17.16-5.16-37.75-25.74-58.35-53.2-20.59-27.46-70.36-118.41-78.93-169.9-6.88-53.19-12.02-73.78-10.31-77.22 3.43-1.71 20.61 18.89 24.05 27.46 5.14 10.3 18.86 66.93 34.31 94.39 13.72 29.17 22.3 36.04 20.57 24.03-1.7-13.74-75.5-228.25-72.06-240.25 5.16-12.01 6.87-22.32 1.72-27.47-5.16-5.14-39.476-89.22-37.749-108.1 1.707-18.88 6.859-20.6 12.019-20.6 6.848 1.72 13.703 13.73 17.14 5.15 1.72-8.59 0-10.29 12.03-12 13.72-1.73 20.58-1.73 20.58 3.41 0 5.16 5.14 10.3 6.87 3.44 0-6.85-10.29-6.85 0-12.01 12.01-3.43 22.32-12.02 24.02-6.87 3.44 5.15 13.73 12.03 13.73 5.15 1.7-5.15 0-12 6.87-15.44 6.87-1.72 17.15-8.59 17.15-3.43 0 5.14 5.17 8.57 10.31 1.71 5.15-6.87 13.72-8.58 17.16-8.58 3.43 1.71-1.73 10.3 8.58 5.14 10.29-3.43 10.29-6.86 20.58-8.57 10.3 0 18.88 0 18.88 3.43 0 5.14 3.44 12.01 8.6 5.14 5.14-8.57 8.56-10.29 15.43-10.29 8.58 1.72 15.45 1.72 13.72 6.86-3.43 6.87 5.16 10.3 8.6 5.16 3.43-5.16 8.58-6.87 10.29-1.73 0 6.87 51.47 127 49.76 130.43 0 5.15-1.73 3.44-12.01-8.57-8.58-13.74-51.48-48.05-60.07-42.91-10.29 3.42-6.86 8.57 3.43 13.73 8.6 5.15 78.94 97.82 113.27 139.01 32.62 42.89 75.51 120.12 60.06 202.49-15.45 80.65-30.89 116.69-41.18 133.85-10.3 17.16-8.59 22.31-13.73 8.58-3.44-12.02-37.76-34.33-39.48-29.17 0 5.15 10.3 53.2-3.43 39.46m-334.62-269.41c-5.164 25.73-12.015 46.32-13.722 46.32-1.727-1.72 1.707-22.3 6.851-48.05 5.145-25.74 12.016-46.32 13.723-46.32 1.726 1.7 0 22.31-6.852 48.05m-1.726 195.63c-5.145-20.61-29.172-96.11-24.008-159.6 5.141-63.5 41.18-132.13 49.758-130.42 6.859 1.72 5.152 49.77 5.152 63.49 0 15.44 25.739 133.86 49.769 180.19 24.02 46.34 66.91 99.54 66.91 104.68 0 6.86-15.44 5.15-44.62-5.14-29.16-8.59-99.528-32.62-102.96-53.2m-37.754-30.9c-10.285-12.01-54.91-66.93-56.617-108.1 0-41.19 1.707-89.25 22.304-130.43 20.59-41.19 24.028-51.49 22.301-68.64-3.418-17.16-25.738-42.91-17.156-42.91 10.301 0 42.914 3.44 54.926 6.87 11.996 3.44 18.867 8.58 25.738 6.86 6.871 0 8.574 0 8.574 5.15 1.715 3.43 8.586 20.6 6.875 25.74-1.726 5.15-48.058 72.07-56.637 123.56-8.582 51.49-15.449 135.57-15.449 159.59 0 24.03 5.141 22.31 5.141 22.31m574.88-214.5s-34.31 5.15-44.62-10.29c-8.58-13.74-53.18-77.23-46.33-82.38s120.13-70.36 121.85-65.22c1.71 5.16 18.87 36.04 27.45 36.04 8.6 0 5.16-5.14 5.16-15.44-1.73-10.3 1.71-24.03 25.73-27.45 24.04-1.72 75.51 1.71 92.67 12.01 17.16 8.58 25.74 17.15 34.31 10.28 6.87-8.57 44.63-15.44 63.51-17.15 17.15-3.43 29.17-3.43 25.74-12-5.15-8.6-58.35-20.61-58.35-30.89 0-10.3-1.73-77.23-8.58-68.66-6.87 6.87-3.43 39.48-6.87 49.78-1.71 8.58-32.6 17.15-39.46 29.16-6.87 13.74-12.01 18.88-12.01 8.59 0-8.59-1.73-42.91 6.87-56.62 6.85-13.73 34.31-51.48 42.89-53.21 6.86-1.71 37.76 20.59 80.65 82.37 42.91 61.78 48.06 60.06 42.91 72.07-5.16 13.74-5.16 34.32-15.44 29.18-10.31-3.44-46.36-3.44-65.22 15.44-20.6 18.87-12.01 30.9-18.88 27.45-8.59-5.14-30.89-48.04-60.06-36.03s-29.17 32.61-46.33 30.89c-17.17-3.44-34.31 3.43-41.19 10.29-6.87 6.87-8.57 17.17-17.16 5.15-8.59-12.01-36.04-27.44-60.06-6.85-25.74 20.59-29.18 42.89-29.18 49.76 0 8.58 1.71 15.45 0 13.73m295.16-49.77c1.72 1.72 25.76 3.44 34.32-6.87 6.87-12.01 10.3-13.72 3.43-13.72-6.85 0-22.3 10.28-30.88 12.01-8.58 1.71-10.31 8.58-6.87 8.58m10.31 49.77c-3.44-5.15-32.61-30.9-30.89-56.64 1.71-25.73 10.29-32.59 22.3-34.32 12.02-1.71 32.6-1.71 36.03 0 3.44 3.44 8.6 6.88-1.71 6.88-8.58 1.71-13.72 0-17.16 5.14-3.43 5.15-5.14 6.86-15.44 6.86-10.31 0-18.87 8.59-15.45 17.16 3.43 10.3 12.01 20.59 20.61 20.59 8.58-1.7 36.02-10.29 37.75-8.57 1.71 3.43 5.14 13.73 0 20.59-5.16 5.15-24.03 17.16-29.17 18.87-5.17 1.72-6.87 3.44-6.87 3.44m-127-37.76c-6.87-1.71-22.3-13.72-18.88-18.88 1.72-6.85 13.74-27.44 17.17-25.73 5.15 3.43 24.02 13.72 22.31 24.02-1.72 8.58-15.44 24.02-20.6 20.59m-48.05 37.76c-13.73-5.15-29.16-17.16-24.02-29.17 5.15-13.73 13.73-25.75 20.59-24.04 6.86 3.44 24.03 24.04 24.03 30.9 0 8.58-6.87 27.46-20.6 22.31m-101.24-34.33c0 12.02 12.01 34.33 25.73 32.61 13.74-3.43 20.6-8.57 20.6-18.88 1.73-10.3-3.42-37.75-10.29-37.75-5.14 0-37.76 13.73-36.04 24.02m233.4 73.8c-17.19-6.87-77.24-53.2-72.09-61.78 5.14-6.86 27.46-20.59 24.03-34.33-3.44-13.72-18.89-27.44-12.02-27.44 5.15 0 70.36 58.34 72.08 66.92 1.71 8.58 15.44 18.88 20.58 22.31 5.16 3.44-15.43 39.46-32.58 34.32m-65.23 56.62c-8.57-1.72-92.65-84.08-80.66-87.5 10.3-3.44 20.59 6.85 27.46 0 6.87-6.87 15.44-18.88 13.73-32.62-1.71-13.73-3.44-18.87-1.71-13.73 1.71 3.43 85.79 89.24 92.66 90.95 6.87 1.72 0 12.02-12.01 22.31-12 10.3-30.88 24.03-39.47 20.59m-85.8 27.46c-10.29-12.01-92.66-114.96-96.1-128.7-3.43-13.74-5.14-22.31 1.71-15.45 6.87 5.14 24.03 37.75 34.33 37.75 10.29 0 30.88-5.14 32.59-18.87 0-15.44-5.14-48.05 0-46.33 5.16 1.72 12.02 0 8.58 10.29-3.42 12.02-5.13 24.03 5.17 39.48 10.3 15.43 63.48 82.37 66.92 89.22 1.71 6.87-10.31 29.18-24.03 34.34-12.02 3.42-20.59 8.57-29.17-1.73m362.1 123.56c-5.17-5.14-12.02-29.18-10.3-61.77 3.43-30.9-6.88-60.06-5.15-78.94 3.43-20.6 17.15-82.37 22.3-73.8 3.44 8.58 32.61 109.82 15.45 152.74-17.16 42.89-17.16 66.91-22.3 61.77m-284.87-22.32c-8.58 39.48-15.45 70.38-18.89 70.38-1.7 0 1.71-32.61 8.58-72.08 6.87-39.48 15.45-72.07 18.88-70.36 1.72 0-1.72 32.61-8.57 72.06m-113.27 418.72c25.75-6.85 303.75-58.33 293.44-70.34-10.28-12.01-118.41-77.24-142.42-156.17-24.03-78.94-32.61-108.11-27.46-133.85 6.87-27.46 13.72-36.04 15.45-27.46 1.7 8.58-5.16 68.64 5.14 94.37 10.3 25.75 10.3 27.48 17.16 22.32 8.57-5.14 48.05-13.72 80.66 6.86 32.61 18.88 48.04 32.61 46.33 22.32 0-10.3-13.72-22.32-12.02-41.19 1.73-18.88 5.17-15.45 0-27.45-5.14-12.01-39.45-77.23-48.03-72.08-8.6 6.86-6.88 30.89-3.44 53.2 3.44 24.02 12.02 49.77 12.02 49.77s-12.02 0-13.74-17.16c-3.44-17.17-18.87-63.5-15.45-85.81 5.14-20.59 12.01-25.74 5.14-39.47-6.85-12.02-27.44-58.34-25.71-89.24 3.43-32.6 8.57-54.9 13.71-46.33 3.44 8.57 1.71 39.48 5.15 65.22 1.71 27.45 22.32 84.08 48.04 116.68 25.75 32.61 20.61 46.34 30.9 48.05 10.29 3.43 13.72-1.71 20.59-5.15 6.87-5.15 17.16-8.57 22.3-25.73 3.43-17.17 1.73-101.26-10.29-127-12.01-25.74-20.59-49.77-22.31-65.2-1.72-15.44-6.86-60.07-6.86-75.52 1.71-15.43 10.29-22.3 12.02-18.87 1.71 5.14 0 29.18 3.43 44.62 1.71 17.16 17.16 63.5 34.32 89.23 15.45 24.03 24.03 41.18 24.03 24.03 0-17.16 18.86-135.57 30.87-176.76 12.02-41.19 51.5-240.25 18.89-327.76-30.9-85.81-48.06-118.42-60.07-128.7-12.01-10.31-24.03-3.44-22.3-17.18 0-15.43-12.02-65.2-22.3-96.09-10.31-29.17-25.74-24.03-22.32-15.45 3.43 6.86 8.57 36.04 12.01 49.77 5.15 15.45 8.58 37.76-1.72 29.17-10.29-10.29-85.8-101.25-90.94-128.7-6.87-27.46-12.01-51.48-6.87-73.8 5.14-22.29-3.44-22.29-12.01-12-8.59 8.58-37.76 53.2-30.89 132.13 8.58 77.23 56.62 156.16 78.94 211.08 22.3 56.64 44.62 94.39 46.33 111.55 1.73 15.43-8.58 24.02-12.01 17.16-1.71-6.87-34.32-66.93-46.34-72.07-13.73-3.44-13.73 10.29-5.16 18.87 8.6 8.57 24.05 39.46 25.76 51.47 0 12.03 1.71 15.45 8.58 27.47 5.14 12.01 58.35 85.79 56.64 102.96 0 18.87-15.45 41.18-15.45 63.5 0 24.01 12.01 41.19 6.85 48.05-5.15 8.57-25.74 44.61-42.9 49.76-18.86 3.44-46.33 44.62-53.2 53.2-8.58 8.58-48.04 56.63-68.64 48.04-20.58-8.57-20.58-10.29-29.16-3.41-6.87 8.56-13.74 6.86-18.89 48.04-6.87 39.47-12.01 90.95-12.01 116.69-1.71 25.74 5.14 39.47-1.71 36.03-6.87-1.71-17.17-53.2-24.03-85.8-6.87-32.59 0-65.21-8.57-73.78-8.59-8.58-42.9-36.05-44.63-41.18 0-5.16-10.28-6.88-6.85 5.13 3.44 12.01 5.14 108.12 18.86 114.99 13.73 5.14 46.33 51.47 49.77 73.77 5.14 24.04 8.58 32.61 3.44 32.61-6.88 0-6.88-6.86-22.3-13.73-15.45-8.57-8.58 12.01 0 20.6 6.85 6.87 13.71 51.49 17.14 72.08 5.16 20.58 6.86 37.75 3.43 29.17-5.15-8.59-27.45-30.89-32.59-39.47-6.87-8.58-10.3-10.29-12.02 0-1.71 10.3-3.43 10.3-12 24.03-6.88 15.44 5.13 44.6 5.13 70.35 0 25.74-5.13 42.9 0 53.21 5.16 12.01 0 18.88-5.13 12.01-5.15-6.86-18.89-30.89-25.75-22.32-6.87 10.31-3.43 44.62-12.02 60.07-6.86 15.44 10.3 37.75 36.04 32.59m427.29-151c-6.85 1.71-32.59-6.87-32.59-13.73-1.73-6.86 1.71-29.17 22.3-30.9 18.89-1.7 36.05-5.13 36.05 0-1.73 5.16-15.45 6.87-18.89 24.04-3.43 15.44-6.87 20.59-6.87 20.59m-238.52-61.79c-5.15-3.43-37.75-41.18-17.16-46.32 20.6-3.43 78.94 12.01 97.81 24.03 18.88 13.72 49.78 13.72 65.21 5.14 13.72-10.29 44.62-30.89 41.19-39.47-5.14-10.29-6.87-8.58-12.02-3.43-5.14 5.14-36.04 42.9-53.2 25.74-15.44-15.44-32.59-39.47-10.28-51.49 24.02-12 108.11-54.91 128.7-48.05 18.88 6.87 37.75 25.75 27.45 36.05-10.29 10.28-32.6 17.14-46.33 48.05-12 30.88-25.74 75.51-27.45 82.36-3.44 6.87-3.44 6.87-8.6 3.43-6.85-3.43-65.19-27.45-84.08-37.75-17.16-12.01-32.61-20.58-51.48-18.88-18.88 1.72-30.89 6.87-20.59 6.87 10.31 1.72 37.75 5.15 36.03 6.87 0 3.42-60.06 10.29-65.2 6.85m0 18.89c3.44 5.14 32.6 39.46 36.04 34.32 3.44-5.15 18.87-22.31 30.88-29.18 13.73-5.14 27.47-10.3 20.59-15.44-6.86-3.43-68.64 0-77.21 3.44-8.57 3.43-13.73 3.43-10.3 6.86m46.33 51.47c5.16 8.59 30.9 25.75 44.62 20.6 13.72-3.43 54.91-15.44 75.51-15.44 22.3 0 27.46 6.86 25.73 0 0-8.57-25.73-41.19-51.47-37.76-27.46 1.72-72.09 22.32-85.81 24.03-13.72 0-13.72 6.86-6.85 10.29 8.58 5.15-1.73-1.72-1.73-1.72m-231.67 187.06c1.71 5.16 60.07 78.94 120.13 85.8 60.06 5.14 151.02-3.43 178.47-20.6 27.46-17.15 70.35-70.35 68.65-80.64-1.73-10.3-27.47-68.65-46.34-68.65-17.15 1.71-320.91 72.07-322.61 75.51 0 5.14 0 3.43 1.7 8.58m319.19-114.97c3.43-1.72 121.85-25.75 121.85-32.62 0-6.86-13.74-15.44-27.47-24.01-12.01-8.59-13.72-8.59-13.72-5.16-1.71 5.16 3.43 29.17 1.71 34.32-3.42 3.43-5.15-1.71-10.29-8.58-5.16-5.14-20.61-17.17-56.63-15.44-36.04 0-72.07 10.3-66.93 12.01 3.44 3.43 48.06 41.19 51.48 39.48m61.78 75.5-1.71-1.72c0-6.87-13.74-34.32-22.3-41.19-8.6-6.85-1.73-10.29 8.56-12.01 10.3 0 58.34-17.16 56.64-12.01-1.72 6.87-29.18 73.8-41.19 66.93m27.46 17.16c-15.45 20.6-29.17 36.04-34.33 32.61-3.44-3.43 5.16-22.32 20.61-42.9 15.43-22.32 30.88-36.04 34.32-34.33 3.43 3.42-5.17 22.3-20.6 44.62m-168.18 133.85c-39.46-1.71-75.5 15.45-130.41-5.14-54.93-20.6-113.27-56.64-127-82.37-15.45-27.47-15.45-36.05-12.01-41.19 3.43-5.15-10.3-24.03-17.16-20.6-6.85 1.73-29.17 49.77-41.18 77.23-13.73 27.46-32.62 70.36-39.49 58.34-6.84-12.01 10.31-97.81 0-94.38-8.55 3.44-42.89 41.19-56.61 48.06-15.45 8.57-17.18 5.13-15.45-5.16 1.71-8.58 27.46-51.48 17.16-41.17-10.29 8.57-82.35 39.46-159.59 36.02-77.23-1.71-80.66 12.02-96.1 18.88-13.74 6.87-20.59 8.59-17.17-3.44 1.73-10.29 25.76-42.89 37.75-66.92 12.02-24.02 39.48-25.73 29.19-32.6-10.31-5.16-32.61-6.87-66.94-1.73-34.32 5.16-58.35 10.31-68.64 18.89-10.3 8.58-12 12.01-12 5.15 0-6.87 17.15-48.05 22.29-53.2 6.87-5.15 18.89-12.02 8.6-13.74-12.01-1.7-111.56 66.94-168.18 77.23-54.926 8.59-82.368 6.86-89.239 1.72-6.859-5.15 6.871-3.44 13.739-10.3 6.851-6.86 41.191-25.75 48.039-34.32 6.871-8.58 13.722-10.31-3.434-8.58-15.437 1.72-65.203 24.02-73.793 18.88-8.582-6.87 1.723-12.02 10.301-15.45 8.578-5.16 27.449-18.87 30.883-30.88 5.164-12.03-10.289 3.42-34.321 6.85-22.3 5.16-22.3 6.87-24.007 0-1.727-5.15 5.144-3.43 10.289-12.01 3.418-10.3 18.863-8.57-5.145-5.14-24.031 1.71-78.953-5.16-104.7-12.02-27.445-8.58-29.168-13.72-65.195-13.72-36.043-1.71-41.184 6.87-42.911 1.71 0-6.87 20.59-30.89 42.911-46.33 22.3-13.73 46.332-20.58 56.621-24.03 10.3-3.42 29.172 1.71 17.172-8.58-13.739-10.29-54.926-1.71-48.055-10.29 5.148-10.3 34.316-25.74 56.637-30.9 22.304-5.14 37.75 0 37.75-6.85 0-6.88-109.84-37.75-128.7-44.63-18.886-8.57-36.043-17.16-80.664-8.57-44.621 8.57-58.347 12.01-65.218 8.57-8.575-1.71 8.582-24.02 20.597-30.89 12.016-6.86 32.606-3.42 24.028-12.02-6.868-10.27-24.028 1.73-65.215-18.87-41.184-20.59-46.328-25.74-37.75-27.45 8.574 0 27.461 6.86 39.476 0 13.723-6.87 61.762-29.18 75.504-29.18 13.739-1.71-5.144-5.14-20.594-6.86-17.16 0-116.71-30.89-144.15-60.05-29.172-30.91-61.781-72.09-82.371-89.23-18.871-17.18-27.449-25.75-20.598-25.75 8.582 0 54.911 6.86 63.504 18.87 8.586 12.01 30.887 25.74 27.45 13.74-3.434-12.02-60.051-96.11-51.477-97.82 8.582 0 6.855 8.58 17.16 12.01 10.309 1.71 24.027 0 17.16-6.87-6.851-6.86-48.039-84.08-72.07-114.97-22.316-29.18-61.781-51.48-48.051-54.92 13.719-5.16 53.195 10.3 78.934 27.46 24.027 15.44 32.609 12.01 25.738 5.14-6.871-6.86-58.348-49.77-44.621-51.47 13.742-3.44 53.219 8.57 66.937 10.3 13.727 1.71 30.879 5.14 22.305 0-8.578-6.87-97.824-39.49-77.211-48.05 22.301-6.87 32.59 3.42 51.477-1.73 18.863-5.14 36.035 0 34.308-10.28-3.433-10.3-13.718-135.57-49.765-229.96-37.746-96.1-75.5-169.9-84.078-243.68-8.579-73.8-10.305-389.55-8.579-482.21 1.708-92.68-3.433-228.24-6.871-257.43-3.433-30.879-1.711-46.328 0-73.773 0-29.188 17.161-187.06 32.606-178.48 15.453 8.571 24.031 61.782 25.742 75.508 3.434 13.731 13.734 60.055 22.316 48.043 8.563-12.004 13.723-17.148 24.032-8.574 12.008 8.574 6.851 24.023 20.574 17.152 13.742-6.851 37.766-8.578 37.766-3.433 0 5.16 39.46 63.5 32.609 84.101-5.16 18.875-10.305 18.875-3.434 27.453 6.848 6.86 24.008 37.754 24.008 60.063 1.727 24.019-12.015 278-8.578 322.62 3.434 44.63 5.145 54.91 10.305 44.63 5.144-10.31 152.73-183.62 159.58-193.92 6.871-12.015 8.586-15.449 13.742-39.465 5.144-22.316 8.582-29.175 27.445-34.328 18.887-5.144 42.899-18.887 10.309-24.031-34.317-5.145-54.93-15.438-68.649-37.75-12.015-24.02-99.531-114.98-113.26-145.87-15.446-30.883-15.446-44.617-8.575-63.5 8.575-17.149 20.59-25.727 20.59-36.028-1.726-12.011-6.871-18.875 0-27.461 5.145-6.855-1.726-18.882-8.597-32.601-6.852-13.731-18.864-36.043-36.024-46.324-15.453-10.301-18.867-30.903-15.453-41.188 3.437-10.301-22.297-42.906-36.023-58.355-13.743-17.168-49.766-72.067-49.766-90.953 0-18.875 5.144-34.317 8.582-39.473 1.707-6.859 6.852-8.574 5.141-17.152-1.723-8.582-36.039-66.934-32.606-89.239 5.141-22.309-269.42-32.606-290.02-32.606-22.305-1.7187 82.371-18.883 90.958-17.156 6.867 0 614.34 18.875 622.92 15.438 8.598-3.4219 12.016-24.016 36.039-27.453 24.032-1.7188 180.2 1.707 193.92 6.8711 12.016 5.1445 25.739-10.305 39.461-15.461 15.454-3.4141 178.47 8.5899 228.25 13.734 49.76 6.8711 132.14 18.887 144.13 29.18 13.75 10.297 15.46 13.715 15.46 13.715s466.77 3.4532 489.07 3.4532c22.3 1.7109 142.44-12.024 144.15 3.414 1.71 15.461 3.44 132.14-3.43 147.59-5.15 15.449-27.47 24.031-22.31 29.176 5.15 5.148 6.86 1.715 17.16 5.148 10.29 5.145 0 87.52-17.16 121.83-18.88 34.328-22.3 41.188-18.88 53.203 1.72 12.004 10.29 48.051 0 63.497-10.29 15.441-13.72 22.3-5.15 29.171 6.87 5.149-8.57 111.54-17.15 121.84-8.6 10.305-13.74 12.016-29.17 12.016-13.74 0-15.45 5.152-6.87 8.586 10.3 1.711 18.88 1.711 22.3 13.726 1.73 13.731-13.72 118.41-20.6 144.15-6.85 25.734 1.73 34.324-32.58 32.601-34.32 0-192.21-25.738-193.93-34.316-1.72-8.582 5.15-216.22-3.43-262.57-10.29-44.614-37.75-142.41-139.01-190.47-101.24-48.051-106.38-54.922-108.11-44.617-3.41 10.297-3.41 219.65 17.16 331.2 18.88 111.55 96.12 394.69 118.41 497.65 22.33 102.97 82.38 429.02 87.52 502.81 5.15 75.51 15.45 159.6 20.6 154.46 3.43-6.88 18.87-37.77 42.91-32.62 22.3 5.14 41.18 27.47 39.46 15.44 0-12.01-32.61-60.06-37.75-73.78-5.15-12.03-8.58-13.74 20.59-10.31 29.17 1.71 12.02-15.43 0-46.32-12.01-30.9-49.76-128.72-46.34-207.66 5.16-80.64 30.89-149.28 66.93-149.28 34.32 0 49.77 6.86 58.35 12.01 6.87 5.14 30.88 0 6.87 10.3-24.03 10.29-34.34 13.72-36.04 39.46-1.71 25.74-1.71 75.51 18.86 101.24 20.6 27.46 18.89 25.75 17.18 13.74-1.73-10.3-36.04-49.76-1.73-41.19 34.32 6.87 54.93 39.47 73.8 63.5 20.59 25.73 20.59 85.81 24.03 96.09 5.14 10.3 111.54 128.71 94.37 278-17.15 149.31-34.32 183.63-34.32 199.07 0 17.17 39.48 139 32.61 188.77-6.86 49.76-13.73 85.8-20.6 92.67-5.14 8.57-8.57 17.15-1.7 15.44 8.57-3.43 24.01-6.87 32.59 1.71 8.59 10.31 36.04 61.79 27.46 72.09-8.58 12.01-39.46 13.72-53.19 44.61-15.45 29.17-17.17 36.03-6.86 32.61 12.01-1.72 46.32 5.14 54.9 20.58 8.58 15.46 5.15 42.91-3.43 32.61-10.29-10.3-15.45-6.86-18.88 1.72-3.42 8.58-1.71 90.96 3.43 114.97 3.44 24.04-34.32 111.55-94.39 149.3-61.76 37.76-89.22 56.63-130.41 56.63zm-888.93-1254.4c1.719-3.43 6.867-8.58 5.16-34.33-1.726-25.74 24.008-149.29 32.59-188.77 8.598-39.46 87.527-142.42 97.817-149.29 10.31-8.58 58.35 8.59 75.52 22.31 15.44 12.02 60.06 18.88 77.22 17.17 18.88 0 53.2-37.76 68.65-42.9 13.72-3.44 42.89 3.42 53.18 36.02 8.6 32.61 34.34 36.05 60.07 53.21 25.74 18.87 58.34 41.18 78.94 118.41 22.3 75.5 54.91 350.07 56.64 377.53 3.42 27.45 6.85 32.61 18.86 32.61 10.31 0-3.42-70.37-5.14-102.97-3.44-30.89-30.88-166.46-37.75-231.67s-75.5-281.43-87.52-324.33c-12.01-42.91-54.9-176.76-126.99-362.1-70.36-187.05-77.23-506.23-80.65-530.25-3.44-24.039-6.87-20.601-22.3-24.039-13.75-1.703-27.48-5.144-32.63-17.148-3.42-12.016-10.29-97.813-10.29-97.813s-6.87 0-44.62 13.715c-37.75 15.442-39.46 17.164-44.6 44.621-3.44 27.461-34.34 18.875-49.79 24.02-13.722 6.871 0 18.875 6.88 39.476 8.57 20.594-30.891 44.621-37.762 60.063-6.864 13.73 15.457 53.195 29.172 97.816 13.75 44.617 44.62 250.54 58.35 267.7 15.45 15.438 32.61 126.99 29.17 142.43-3.43 17.16 13.75 46.328 20.6 82.375 8.57 36.029-46.34 80.649-56.62 82.369-8.6 3.44-199.07 147.58-205.94 147.58-8.574 0 0 37.75-6.867 72.08-5.145 34.31-29.176 51.48-10.305 68.64 18.887 15.45 24.043 116.69 24.043 147.58-1.726 29.17-66.941 58.34-73.793 72.08-6.871 12.01 1.711 17.16 20.59 17.16 18.871 0 53.203-5.15 70.344 15.43 17.179 20.6 46.347 54.92 49.769 53.21zm-231.66-1089.7c5.145 3.433 6.856 5.14 10.289 6.867 3.438 0 1.711 327.77 6.856 329.48 6.871 1.727 10.304-314.04 10.304-322.6 0-6.871 10.305-10.305 18.883-13.738 10.289-1.711 13.719-5.145 18.863-30.887 6.871-25.742 37.758-58.352 46.348-73.793 8.586-17.152-72.082-231.67-72.082-235.1-1.707-5.152-15.445-6.863-22.316 5.141-5.145 12.016-24.016 3.438-32.594 3.438-6.867 0 0 5.144-3.434 18.886-1.726 15.438-30.883 29.172-53.199 42.895-24.027 12.004-46.332-3.43-56.621-8.582-12.031-3.434-5.16 6.871 5.144 24.027 12.012 17.16 20.598 41.18 20.598 51.477 1.703 12.015-6.871 17.164-8.586 36.043-1.726 18.879 106.4 161.31 111.55 166.46" fill-rule="evenodd" stroke="#000" stroke-width="2.8346"/>
   </g>
  </g>
  <path d="m-16.068 330.38 6.3284-3.2081 0.06946-0.4413c0.3955-2.5041 1.209-11.649 1.0509-11.809-0.05851-0.0597-1.1984 0.28621-3.1174 0.94545-2.5966 0.89189-4.3441 1.5191-9.5001 3.4096-0.47815 0.17538-0.92418 0.36244-0.99053 0.41408-0.08562 0.0675-0.12026 0.45827-0.11936 1.3352 1e-3 0.68157-0.05187 3.7464-0.11362 6.8109-0.07036 3.4028-0.08041 5.6065-0.02369 5.6612 0.05367 0.0546 2.5836-1.1748 6.4175-3.1183zm-8.0385 3.0572c0.05654-0.10864 0.12223-2.8972 0.16549-6.9546 0.05941-5.6892 0.05187-6.7909-0.06229-6.8816-0.14969-0.12124-8.6118-2.9877-8.6644-2.9342-0.01903 0.0209 9e-3 1.8354 0.06748 4.0366 0.056 2.2012 0.08885 4.0147 0.07413 4.0299-0.01436 0.0126-1.2645-0.46955-2.7768-1.0768l-2.7495-1.1045-0.06229-1.2227c-0.03805-0.67258-0.09549-2.4077-0.13587-3.856l-0.07359-2.6332-0.24812-0.0957c-0.3589-0.13871-4.4507-1.3695-6.1398-1.8472-1.1757-0.33285-1.4616-0.38368-1.5548-0.27869-0.08418 0.0949-0.09369 0.45213-0.03805 1.355 0.19395 3.0663 0.89919 9.993 1.0306 10.126 0.04271 0.042 1.1806 0.55514 2.535 1.1435 3.3545 1.4575 5.6338 2.4875 12.416 5.611 3.1891 1.4687 5.8708 2.6914 5.9593 2.7171 0.09262 0.025 0.20013-0.0334 0.25526-0.13462zm-9.2038-10.755c-0.03321-0.49946-0.08041-2.1268-0.11307-3.6167l-0.05941-2.7091-1.3182-0.42159c-0.725-0.23162-1.6401-0.52339-2.0334-0.64898l-0.71522-0.22827 0.06318 2.2296c0.03805 1.2262 0.09135 2.8079 0.12456 3.515l0.06085 1.2856 1.9437 0.75276c1.069 0.41411 1.9789 0.7518 2.022 0.75063 0.04757-8.3e-4 0.05367-0.41076 0.02369-0.90984zm-2.2687-1.7006c-0.4069-0.16537-0.58863-0.48866-0.58863-1.0466 0-0.15873-0.09226-0.42064-0.20488-0.5817-0.8216-1.1716 0.10465-2.3213 1.3093-1.6252 0.75752 0.43805 1.0466 1.5349 0.5467 2.0752-0.14215 0.15367-0.20106 0.34704-0.20106 0.65773 0 0.67934-0.1892 0.79366-0.8611 0.52073zm24.772-6.5483c0.31516-0.11825 0.58739-0.26079 0.60544-0.31743 0.01903-0.0589-0.75176-0.30579-1.8047-0.57881-1.0106-0.26122-1.8376-0.4933-1.8376-0.51442 0-0.0208 0.08454-0.20662 0.18776-0.41243l0.18823-0.37368 1.9625 0.5234c1.0794 0.28828 2.0386 0.52396 2.1316 0.525 0.28996 3e-3 0.18681-0.25454-0.24624-0.61501-0.32704-0.27246-0.64884-0.4091-1.522-0.64293-0.60869-0.16289-1.7591-0.47321-2.5563-0.68847-7.8792-2.1262-14.732-3.8675-18.253-4.6376-0.31231-0.068-0.64305-0.19329-0.73593-0.27745-0.16351-0.14784-1.3089-2.0049-3.577-5.7961-0.59731-0.99852-1.0982-1.8293-1.1128-1.8461-0.08275-0.0945-1.1102-0.13163-1.1102-0.0425 0 0.10613 1.5219 2.7473 3.745 6.4983l1.2504 2.1098 1.2442 0.27494c0.68433 0.15116 1.2634 0.29454 1.2868 0.31828 0.06946 0.0707-0.31326 0.73132-0.42353 0.73132-0.056 0-0.75994-0.14659-1.5646-0.32742l-1.4631-0.32746-1.3369 0.41535c-4.4995 1.3992-9.7169 3.0731-9.7808 3.1382-0.02369 0.025-0.0054 0.0849 0.04756 0.13037 0.11846 0.10707 1.0057 0.34911 1.2212 0.33286 0.09226-5e-3 0.94116-0.25411 1.8861-0.5491 7.1127-2.2199 7.89-2.4422 8.3278-2.3812 1.1859 0.16495 11.546 2.7105 19.194 4.7157 1.754 0.46059 3.2544 0.8341 3.3341 0.8316 0.07988-3e-3 0.40311-0.10108 0.71755-0.21955zm-10.88-3.3881c-2.3569-0.59201-4.7202-1.1778-5.2517-1.3016-0.53153-0.12376-0.98412-0.23829-1.0057-0.2537-0.01903-0.0126 0.04271-0.20497 0.13497-0.42114 0.13928-0.31411 0.2144-0.38242 0.37744-0.34453 2.8864 0.68006 10.5 2.5893 10.616 2.6624 0.11882 0.0746-0.33702 0.83119-0.46918 0.77953-0.06372-0.025-2.045-0.52978-4.4019-1.1219zm13.544 1.4106c0.25527-0.68184 0.9163-3.3455 1.2549-5.0576 0.49732-2.5139 0.60945-3.5216 0.56838-5.1109-0.03321-1.2201-0.05277-1.3498-0.2933-1.7656-0.45776-0.79136-1.1083-1.4358-1.7945-1.7789-0.56908-0.28537-0.74952-0.32371-1.6202-0.35661-1.1139-0.0425-2.0596 0.15288-3.4616 0.71134-1.594 0.6355-4.3158 2.2235-4.3158 2.5181 0 0.23245 9.1463 11.027 9.3754 11.064 0.13318 0.0208 0.22104-0.0471 0.28711-0.22413zm-19.741-12.02c0.77895-0.9969 0.77353-0.9867 0.52478-0.9867-0.10787 0-0.21867-0.0425-0.24719-0.085-0.03321-0.0471 0.42258-0.55452 1.0022-1.1285 0.57971-0.57401 1.0461-1.0466 1.0366-1.0501-9e-3 -3e-3 -0.42305-0.0605-0.91947-0.12612-0.88205-0.11793-0.90881-0.11541-1.208 0.10613-0.32275 0.23912-1.9137 1.8128-1.874 1.8531 0.01436 0.0126 0.40928 0.092 0.88178 0.17579 0.4725 0.0838 0.8781 0.17164 0.90197 0.19581 0.02369 0.025-0.18776 0.33702-0.47013 0.69513-0.40309 0.51073-0.55592 0.63946-0.7094 0.59769-0.10787-0.0334-0.45634-0.10329-0.77545-0.16707-0.31895-0.0622-0.6181-0.14738-0.66482-0.19121-0.04756-0.0471 0.09406-0.33329 0.31231-0.64643 0.33322-0.47733 0.37315-0.5819 0.24812-0.65297-0.08167-0.0471-0.21152-0.06-0.28757-0.0334-0.13174 0.0526-1.1055 1.4821-1.1055 1.6239 0 0.0375 0.6072 0.19871 1.3493 0.36118l1.3493 0.29411zm10.223-0.0526c1.4118-0.89875 3.592-2.0113 4.6388-2.3673 0.42495-0.14454 1.0993-0.29203 1.4979-0.3266l0.72486-0.0638-0.48334-0.16539c-3.3872-1.159-17.283-3.5991-20.681-3.6317-1.1606-8e-3 -1.4937 0.092-3.0267 0.93999-1.6197 0.89565-3.8139 2.6277-3.6565 2.8864 0.03805 0.06 0.31516 0.13699 0.62048 0.17248 1.1887 0.13572 5.0699 0.66736 6.3976 0.87566l1.3979 0.21914 0.96985-0.99466c0.5334-0.5472 1.1488-1.1157 1.3675-1.2636l0.39787-0.26871 1.5805 0.2058c0.86932 0.1129 1.5915 0.2162 1.6048 0.23037 0.01436 0.0126-0.36364 0.34787-0.83757 0.74249-0.93577 0.77974-1.9709 1.8398-1.8596 1.9046 0.04271 0.0209 0.28664 0.0726 0.55258 0.11085 0.36032 0.0526 5.5822 1.0989 7.4414 1.4917 0.12169 0.025 0.62101-0.2312 1.353-0.69737z" stroke-width=".097384"/>
  <text transform="scale(.92947 1.0759)" x="-3.382338" y="300.39862" font-family="'Los Angeles Deco'" font-size="83.173px" stroke-width="5.5529" style="line-height:1.25" xml:space="preserve"><tspan x="-3.382338" y="300.39862" font-family="'Los Angeles Deco'" font-size="83.173px" stroke-width="5.5529">Lar Pradeda</tspan></text>
  <path d="m24.269 107.82v66.667h4.1519v-16.006c3.2295-3.2013 5.7671-6.9094 7.6125-11.124 1.8915-4.3751 2.837-8.7771 2.837-13.206 0-5.869-1.1764-11.178-3.5293-15.926-2.399-4.6419-6.0895-8.1099-11.072-10.404zm4.1519 8.1634c1.5686 1.4939 3.0217 3.7879 4.3596 6.8825 1.2918 2.9879 1.938 6.7494 1.938 11.285 0.09227 7.363-2.0071 13.446-6.2976 18.248zm59.445-8.0833v38.816c-1.384-1.6006-2.9988-2.401-4.8442-2.401-2.4913 0-4.5213 0.98686-6.0899 2.961-1.6609 2.0275-2.4914 4.4819-2.4914 7.363 0 2.9879 0.83049 5.4423 2.4914 7.3631 1.5686 1.9741 3.5986 2.961 6.0899 2.961 1.8915 0 3.5063-0.74684 4.8442-2.2408v2.0005h4.0134v-56.823zm-4.5673 40.896c1.4302 0 2.6066 0.56029 3.5293 1.6807 0.87656 1.1738 1.3149 2.5611 1.3149 4.1618 0 1.654-0.43835 3.0146-1.3149 4.0817-0.87657 1.1738-2.053 1.7608-3.5293 1.7608-1.4763 0-2.6528-0.58701-3.5293-1.7608-0.9227-1.1738-1.3842-2.5344-1.3842-4.0817s0.46145-2.9346 1.3842-4.1618c0.87657-1.1204 2.053-1.6807 3.5293-1.6807zm44.082-40.896v38.816c-1.384-1.6006-2.9988-2.401-4.8442-2.401-2.4913 0-4.5208 0.98686-6.0894 2.961-1.6608 2.0275-2.4914 4.4819-2.4914 7.363 0 2.9879 0.8305 5.4423 2.4914 7.3631 1.5686 1.9741 3.5981 2.961 6.0894 2.961 1.8915 0 3.5063-0.74684 4.8442-2.2408v2.0005h4.014v-56.823zm-4.5673 40.896c1.4302 0 2.6066 0.56029 3.5293 1.6807 0.87657 1.1738 1.3149 2.5611 1.3149 4.1618 0 1.654-0.43835 3.0146-1.3149 4.0817-0.87656 1.1738-2.053 1.7608-3.5293 1.7608-1.4763 0-2.6528-0.58701-3.5293-1.7608-0.9227-1.1738-1.3842-2.5344-1.3842-4.0817s0.46145-2.9346 1.3842-4.1618c0.87658-1.1204 2.053-1.6807 3.5293-1.6807zm-157.78-40.096v65.786h9.6885v-4.2419h-5.5366v-61.544zm18.892 35.614c-2.4452 0-4.5214 0.98686-6.2284 2.961-1.7531 2.0275-2.6298 4.4819-2.6298 7.363 0 2.9345 0.8767 5.3622 2.6298 7.283 1.707 1.9741 3.7832 2.961 6.2284 2.961 1.8915 0 3.6444-0.80031 5.2591-2.401v2.1607h3.3222v-20.088h-3.3222v2.2414c-1.4302-1.654-3.183-2.481-5.2591-2.481zm0 4.4815c1.4302 0 2.6066 0.56029 3.5293 1.6807 0.87656 1.1738 1.3149 2.5611 1.3149 4.1618 0 1.654-0.43835 3.0146-1.3149 4.0817-0.87656 1.1738-2.053 1.7608-3.5293 1.7608-1.4302 0-2.5835-0.58701-3.4601-1.7608-0.9227-1.1738-1.3841-2.5344-1.3841-4.0817s0.46145-2.9346 1.3841-4.1618c0.87657-1.1204 2.0299-1.6807 3.4601-1.6807zm21.729-4.4815c-1.7993 0-3.1599 0.69337-4.0826 2.0806v-1.7608h-4.014v20.008h4.014v-11.845c0-1.2805 0.27664-2.3209 0.83026-3.1212 0.55362-0.74697 1.3148-1.1207 2.2836-1.1207 1.1072 0 2.007 0.18715 2.6991 0.56063v-4.5622c-0.64589-0.16007-1.2228-0.23968-1.7303-0.23968zm45.397 0c-1.7993 0-3.1605 0.69337-4.0832 2.0806v-1.7608h-4.0134v20.008h4.0134v-11.845c0-1.2805 0.27721-2.3209 0.83083-3.1212 0.55362-0.74697 1.3148-1.1207 2.2836-1.1207 1.1072 0 2.007 0.18715 2.6991 0.56063v-4.5622c-0.64589-0.16007-1.2228-0.23968-1.7303-0.23968zm11.834 0c-2.4452 0-4.5214 0.98686-6.2284 2.961-1.7531 2.0275-2.6298 4.4819-2.6298 7.363 0 2.9345 0.8767 5.3622 2.6298 7.283 1.707 1.9741 3.7832 2.961 6.2284 2.961 1.8915 0 3.6449-0.80031 5.2597-2.401v2.1607h3.3216v-20.088h-3.3216v2.2414c-1.4302-1.654-3.1836-2.481-5.2597-2.481zm0 4.4815c1.4302 0 2.6066 0.56029 3.5293 1.6807 0.87657 1.1738 1.3149 2.5611 1.3149 4.1618 0 1.654-0.43835 3.0146-1.3149 4.0817-0.87657 1.1738-2.053 1.7608-3.5293 1.7608-1.4302 0-2.5835-0.58701-3.4601-1.7608-0.9227-1.1738-1.3842-2.5344-1.3842-4.0817s0.46145-2.9346 1.3842-4.1618c0.87656-1.1204 2.0299-1.6807 3.4601-1.6807zm80.344-4.4815c-2.4452 0-4.5214 0.98686-6.2284 2.961-1.7531 2.0275-2.6298 4.4819-2.6298 7.363 0 2.9345 0.8767 5.3622 2.6298 7.283 1.707 1.9741 3.7832 2.961 6.2284 2.961 1.8915 0 3.6444-0.80031 5.2591-2.401v2.1607h3.3222v-20.088h-3.3222v2.2414c-1.4302-1.654-3.183-2.481-5.2591-2.481zm0 4.4815c1.4302 0 2.6066 0.56029 3.5293 1.6807 0.87657 1.1738 1.3149 2.5611 1.3149 4.1618 0 1.654-0.43834 3.0146-1.3149 4.0817-0.87657 1.1738-2.053 1.7608-3.5293 1.7608-1.4302 0-2.5835-0.58701-3.4601-1.7608-0.92269-1.1738-1.3841-2.5344-1.3841-4.0817s0.46145-2.9346 1.3841-4.1618c0.87657-1.1204 2.0299-1.6807 3.4601-1.6807zm-38.823-4.322c-1.0611 0-2.0995 0.24062-3.1145 0.72081-1.015 0.4802-1.8911 1.2003-2.6293 2.1607-1.5686 1.9741-2.3529 4.4018-2.3529 7.283 0 3.0412 0.78429 5.4689 2.3529 7.283 1.5225 1.9741 3.5063 2.961 5.9514 2.961 1.4763 0 2.8139-0.39986 4.0134-1.2002v-4.322c-1.0611 0.74697-2.3987 1.1207-4.0134 1.1207-0.59975 0-1.1998-0.13368-1.7996-0.40046s-1.1074-0.66663-1.5226-1.2002c-0.55362-0.64026-0.92267-1.4144-1.1072-2.3214h11.35v-4.0817c0-2.2943-0.69245-4.1878-2.0765-5.6817-1.3841-1.5473-3.0676-2.3214-5.0514-2.3214zm0.0693 4.322c0.96884 0 1.7762 0.45334 2.4221 1.3604 0.64586 0.85366 0.94561 1.6807 0.8995 2.481h-7.5433c0.23067-1.0671 0.71523-1.9738 1.4534-2.7207 0.7843-0.74696 1.7072-1.1207 2.7683-1.1207z" stroke-width="5.2666"/>
  <path d="m-91.386 108.13c-2.4089 0.0322-4.4778 1.5043-6.4689 2.7273-1.62 1.1-3.3218 2.2089-4.5132 3.8109-0.28403 0.55786-0.0811 1.2872 0.40418 1.6524-0.58448 0.54029-0.20443 1.3324 0.17237 1.861 2.3501 4.268 4.877 8.4302 7.3546 12.619-0.76836-0.12136-1.4922 0.39047-2.242 0.53442-5.434 1.7172-10.901 3.3541-16.278 5.2384-0.48628 0.2755-0.65384 0.9418-0.44024 1.4521-1.0024-0.0457-1.4704 1.0942-1.3695 1.9778 0.31887 5.8419 0.89765 11.669 1.6506 17.468 0.0613 0.76782 0.71355 1.1925 1.3711 1.3789 7.337 3.2468 14.672 6.5052 21.953 9.8883 3.6639 1.664 7.3118 3.3912 10.999 4.9862 0.44239 0.0828 0.84841-0.10384 1.2359-0.31006l0.6959 0.2713 0.41107-0.16103c0.02018 0.0638 0.03852 0.12844 0.05834 0.19216 1.7209-0.0717 3.1613-1.1415 4.7053-1.7954 5.8259-2.874 11.611-5.8324 17.409-8.7665 0.93664-6.2868 1.4442-12.633 1.8952-18.973-0.04417-0.72076 0.18101-1.6042-0.32567-2.1885-0.70234-0.49765-1.5492-0.0612-2.293 0.0945 0.39604-0.37428-0.17391-0.93047 0.57549-0.7091 0.528-0.0328 0.92515-0.52619 1.0661-0.97115 1.1157 0.24494 1.7825-1.011 1.9439-1.9669 1.1687-4.4304 2.3137-8.911 2.6642-13.503 0.02473-1.6421 0.17375-3.3523-0.28907-4.9387-0.80855-1.967-2.5932-3.5983-4.4199-4.2907-2.2566-1.1849-4.6442-2.0924-7.125-2.6318-8.1588-1.8688-16.403-3.3542-24.695-4.4414-2.0257-0.25299-4.06-0.53839-6.105-0.50658z" fill="#fff" stroke="#000" stroke-width=".15515"/>
  <path d="m-65.423 167.49 10.1-5.1154 0.11086-0.70368c0.63121-3.9929 1.9295-18.575 1.6772-18.831-0.09338-0.0951-1.9126 0.45639-4.9754 1.5076-4.1442 1.4222-6.9331 2.4223-15.162 5.4369-0.76312 0.27964-1.475 0.57794-1.5809 0.66027-0.13665 0.10763-0.19193 0.73075-0.19049 2.129 0.0016 1.0868-0.08278 5.9738-0.18133 10.86-0.1123 5.4259-0.12833 8.9399-0.03781 9.0271 0.08567 0.0871 4.1234-1.8733 10.242-4.9724zm-12.829 4.8749c0.09024-0.17322 0.19508-4.6197 0.26411-11.09 0.09482-9.0718 0.08279-10.828-0.09941-10.973-0.23891-0.19333-13.744-4.7641-13.828-4.6788-0.03038 0.0333 0.01437 2.9267 0.1077 6.4366 0.08938 3.51 0.1418 6.4017 0.11831 6.4259-0.02292 0.0201-2.0182-0.74871-4.4317-1.717l-4.3882-1.7612-0.0995-1.9497c-0.0607-1.0725-0.1524-3.8393-0.21685-6.1486l-0.11744-4.1988-0.396-0.1526c-0.57279-0.22115-7.1032-2.1838-9.799-2.9454-1.8765-0.53073-2.3327-0.61181-2.4815-0.44438-0.13436 0.15132-0.14951 0.72093-0.0607 2.1606 0.30956 4.8894 1.4351 15.934 1.6448 16.147 0.0683 0.0669 1.8842 0.88519 4.0457 1.8234 5.3538 2.3241 8.9914 3.9665 19.816 8.9472 5.0898 2.342 9.3698 4.2917 9.5109 4.3326 0.14782 0.04 0.3194-0.0533 0.4074-0.21466zm-14.689-17.149c-0.05301-0.79641-0.12833-3.3913-0.18046-5.7671l-0.09481-4.3198-2.1039-0.67225c-1.1571-0.36933-2.6176-0.83457-3.2453-1.0348l-1.1415-0.36398 0.10083 3.5552c0.06073 1.9552 0.14579 4.4774 0.1988 5.6049l0.09712 2.05 3.1021 1.2003c1.7061 0.66036 3.1583 1.1988 3.2271 1.1969 0.07593-9.2e-4 0.08566-0.65499 0.03781-1.4508zm-3.6208-2.7117c-0.6494-0.26369-0.93944-0.77921-0.93944-1.6688 0-0.25311-0.14725-0.67073-0.32699-0.92754-1.3113-1.8682 0.16701-3.7014 2.0896-2.5915 1.209 0.69849 1.6703 2.4475 0.87252 3.309-0.22687 0.24505-0.32089 0.55339-0.32089 1.0488 0 1.0833-0.30195 1.2656-1.3743 0.83035zm39.536-10.442c0.50299-0.18855 0.93746-0.41583 0.96628-0.50616 0.03038-0.094-1.1998-0.4876-2.8803-0.92296-1.613-0.41651-2.9328-0.7866-2.9328-0.82026 0-0.0331 0.13492-0.32947 0.29966-0.65765l0.30041-0.59585 3.1321 0.8346c1.7227 0.45968 3.2536 0.83548 3.4019 0.83713 0.46277 5e-3 0.29814-0.40586-0.39299-0.98066-0.52195-0.43446-1.0355-0.65234-2.4291-1.0252-0.97146-0.25974-2.8075-0.75456-4.0799-1.0978-12.575-3.3904-23.513-6.1669-29.131-7.3949-0.49844-0.10844-1.0263-0.30821-1.1745-0.44241-0.26096-0.23574-2.089-3.1969-5.7088-9.2422-0.9533-1.5922-1.7526-2.9169-1.7761-2.9437-0.13207-0.15068-1.7718-0.2099-1.7718-0.0678 0 0.16926 2.429 4.3807 5.977 10.362l1.9955 3.3642 1.9857 0.43841c1.0922 0.24103 2.0164 0.46965 2.0538 0.50753 0.11086 0.11273-0.49995 1.1661-0.67595 1.1661-0.08938 0-1.2129-0.23375-2.4971-0.5221l-2.3351-0.52216-2.1337 0.6623c-7.1811 2.2311-15.508 4.9003-15.61 5.004-0.0378 0.0399-0.01 0.13536 0.0758 0.20787 0.18908 0.17074 1.605 0.55668 1.9491 0.53077 0.14723-9e-3 1.5021-0.40521 3.0102-0.87558 11.352-3.5397 12.592-3.8942 13.291-3.797 1.8927 0.263 18.427 4.3221 30.633 7.5195 2.7994 0.73441 5.194 1.33 5.3211 1.326 0.12749-5e-3 0.64335-0.16119 1.1452-0.35009zm-17.364-5.4026c-3.7616-0.944-7.5334-1.878-8.3817-2.0755-0.84831-0.19735-1.5706-0.37997-1.6051-0.40453-0.03038-0.02 0.06816-0.32685 0.21542-0.67155 0.22229-0.50087 0.34218-0.60981 0.60239-0.54937 4.6066 1.0844 16.758 4.1288 16.944 4.2453 0.18963 0.11895-0.53788 1.3254-0.7488 1.243-0.1017-0.04-3.2637-0.84475-7.0253-1.7889zm21.615 2.2493c0.4074-1.0872 1.4624-5.3347 2.0029-8.0646 0.79372-4.0086 0.97267-5.6154 0.90712-8.1496-0.05301-1.9455-0.08421-2.1523-0.4681-2.8154-0.73058-1.2619-1.7689-2.2895-2.8639-2.8366-0.90824-0.45504-1.1962-0.51617-2.5858-0.56863-1.7778-0.0678-3.2872 0.24377-5.5247 1.1343-2.544 1.0134-6.888 3.5455-6.888 4.0153 0 0.37066 14.597 17.583 14.963 17.643 0.21255 0.0331 0.35277-0.075 0.45822-0.3574zm-31.507-19.166c1.2432-1.5896 1.2345-1.5733 0.83754-1.5733-0.17216 0-0.34899-0.0677-0.39451-0.13555-0.05301-0.0751 0.67444-0.88421 1.5995-1.7994 0.9252-0.91529 1.6696-1.6688 1.6543-1.6745-0.01437-5e-3 -0.67518-0.0964-1.4675-0.2011-1.4077-0.18804-1.4504-0.18403-1.9279 0.16923-0.51511 0.38129-3.0542 2.8906-2.9909 2.9549 0.02292 0.02 0.65321 0.14671 1.4073 0.28032 0.7541 0.13363 1.4014 0.27369 1.4395 0.31221 0.03781 0.04-0.29966 0.53741-0.75032 1.1084-0.64332 0.81439-0.88724 1.0196-1.1322 0.95305-0.17216-0.0533-0.72832-0.16471-1.2376-0.26641-0.50903-0.0992-0.98647-0.23499-1.061-0.30488-0.07591-0.0751 0.15012-0.53144 0.49844-1.0308 0.53181-0.76115 0.59554-0.92789 0.396-1.0412-0.13034-0.0751-0.33759-0.0957-0.45896-0.0533-0.21026 0.084-1.7644 2.3633-1.7644 2.5894 0 0.0598 0.96909 0.31686 2.1535 0.57591l2.1534 0.46899zm16.316-0.084c2.2531-1.4331 5.7328-3.2072 7.4034-3.7748 0.67821-0.23049 1.7544-0.46567 2.3907-0.52078l1.1569-0.10175-0.7714-0.26373c-5.4059-1.8482-27.583-5.7389-33.007-5.791-1.8523-0.0126-2.384 0.14669-4.8306 1.4989-2.585 1.4282-6.087 4.1901-5.8357 4.6025 0.0607 0.0957 0.50298 0.21846 0.99026 0.27503 1.8972 0.21643 8.0914 1.0642 10.21 1.3963l2.231 0.34942 1.5479-1.586c0.85129-0.87255 1.8334-1.779 2.1824-2.0148l0.63499-0.42845 2.5225 0.32816c1.3874 0.18003 2.54 0.34474 2.5612 0.36733 0.02292 0.02-0.58036 0.5547-1.3368 1.184-1.4935 1.2433-3.1455 2.9337-2.9678 3.037 0.06816 0.0333 0.45747 0.11577 0.88192 0.17677 0.57506 0.0838 8.909 1.7523 11.876 2.3786 0.19422 0.0399 0.99111-0.36865 2.1593-1.112z" stroke-width=".15535"/>
 </g>
 <path d="m50.388 101.61c1.3649-0.0295 2.6625 0.52134 4.0009 0.72921 11.539 2.6073 22.999 5.5144 34.48 8.3768-6.0383 2.0404-12.076 4.11-18.035 6.3614-0.16087 0.11064-0.28998 0.23676-0.39676 0.37379l-0.55409 0.20096s-0.39236-0.11724-0.5627-0.16766c-0.36134-0.55868-1.1025-0.81868-1.7426-0.97324-4.8149-1.6442-9.6531-3.2714-14.523-4.7135-0.37369-0.33606-1.126-0.38449-1.6479-0.60749-2.5869-0.80161-5.1726-1.6068-7.7601-2.4064-0.41013-0.0138-1.06-0.33649-1.5629-0.45418-2.4513-0.78029-4.9375-1.4511-7.4041-2.1606 5.2448-1.486 10.412-3.2639 15.709-4.559z" fill="#fff" stroke="#000" stroke-width=".16556"/>
 <path d="m46.487 82.986c0.39258 0.05078 0.78507 0.10138 1.1776 0.15216 2.6426 0.32448 5.2754 0.69285 7.9203 1.0898-0.566 0.71787-0.98705 1.5428-1.1799 2.4397 1.4623 1.1402 3.4002 1.1339 5.1188 1.6094 0.52511-0.02048 1.2708 0.58075 1.6002 0.01148 0.7398-0.9255 1.4996-1.8305 2.2146-2.775 4.5443 0.83955 9.0618 1.7395 13.598 2.6246 0.32889 0.05302 0.95345-0.53265 0.92846 0.02641 0.36329 0.94385 1.2132 1.6067 1.8006 2.4144 3.9462 4.6749 7.9522 9.302 12.052 13.841-12.453-3.2777-24.924-6.508-37.487-9.35-0.68827-0.47048-0.91841-1.3635-1.4498-1.9884-2.1294-3.3454-4.2007-6.7272-6.2942-10.095z" fill="#fff" stroke="#000" stroke-width=".16556"/>
</svg>
