<svg version="1.1" id="Layer_1" xmlns="http://www.w3.org/2000/svg" xmlns:xlink="http://www.w3.org/1999/xlink" x="0px" y="0px"
	 width="100%" viewBox="0 0 750 500" enable-background="new 0 0 750 500" xml:space="preserve">
<path fill="#FFFFFF" opacity="1.000000" stroke="none" 
	d="
M751.000000,286.000000 
	C751.000000,357.568939 751.000000,429.137878 751.000000,501.000000 
	C716.312439,501.000000 681.624084,501.000000 646.565674,500.647583 
	C655.057434,495.420349 663.982971,490.657288 672.767761,485.647400 
	C690.909790,475.301025 708.983521,464.834747 727.052612,454.361298 
	C727.865967,453.889862 728.809143,452.927094 728.928589,452.084869 
	C730.047363,444.198364 731.239075,436.309418 731.939941,428.379639 
	C732.851074,418.070557 733.329529,407.723328 734.002625,397.393066 
	C734.333801,392.310272 734.688965,387.229034 735.024231,382.146484 
	C735.486084,375.145905 735.939575,368.144745 736.457886,360.205444 
	C731.179993,361.887604 726.974792,362.949127 722.983459,364.545532 
	C698.460510,374.353729 673.955261,384.208740 649.553833,394.312988 
	C647.611511,395.117218 645.280029,397.869659 645.193237,399.809082 
	C644.511475,415.037262 644.178101,430.286591 644.039795,445.532135 
	C643.872009,464.020020 644.000000,482.510590 644.000000,501.000000 
	C640.969360,501.000000 637.938721,501.000000 634.460571,500.570007 
	C634.342041,498.410034 634.922424,496.685669 634.961182,494.949249 
	C635.357971,477.202728 635.762329,459.455322 635.968811,441.705933 
	C636.125793,428.211243 635.989441,414.713287 636.007263,401.216766 
	C636.011780,397.812317 635.040405,395.358368 631.432129,393.984253 
	C614.370300,387.486450 597.394897,380.761566 580.360168,374.191650 
	C579.432678,373.833923 578.247070,374.145477 577.500000,374.145477 
	C577.500000,394.225769 577.500000,413.870087 577.500000,433.710999 
	C568.209045,429.486603 558.968323,425.030487 549.517700,421.075867 
	C543.022461,418.357941 542.105957,417.455841 541.983215,410.484100 
	C541.703125,394.568085 541.382324,378.652161 540.905823,362.741364 
	C540.867920,361.477783 539.759216,359.484772 538.707581,359.127563 
	C523.384460,353.923065 508.011688,348.859467 492.591644,343.947815 
	C487.294189,342.260437 486.717041,342.651611 487.065308,348.152496 
	C487.852386,360.584930 488.990936,372.995087 489.984375,385.414490 
	C490.990936,397.997375 492.001068,410.580017 492.995728,423.163849 
	C493.255737,426.453125 492.914917,430.082123 496.485657,431.915222 
	C530.539612,449.396851 564.643555,466.781128 598.681885,484.292999 
	C609.201904,489.705261 619.565063,495.422424 630.000000,501.000000 
	C463.978577,501.000000 297.957123,501.000000 131.585403,500.639893 
	C134.789948,498.958313 138.344788,497.636871 142.969513,495.917694 
	C140.324707,494.229980 137.985641,493.195648 136.262802,491.525665 
	C133.943481,489.277466 130.729156,486.737061 130.329681,483.971039 
	C129.433975,477.768951 129.453552,471.278534 130.216232,465.041992 
	C130.837204,459.964294 133.079498,455.084869 134.602844,450.117523 
	C134.987030,450.248230 135.371231,450.378967 135.755432,450.509705 
	C135.097672,453.190247 134.439896,455.870758 133.770218,458.599884 
	C138.884293,459.817261 142.756912,458.447052 146.066986,455.423889 
	C156.379181,446.005402 163.534180,435.049316 164.144135,420.460602 
	C164.341721,415.735107 165.013702,410.347626 167.444931,406.517365 
	C177.102081,391.303131 184.758743,375.279968 188.538223,357.684418 
	C190.475525,348.665314 191.699112,339.325836 191.767395,330.120178 
	C191.833450,321.218140 190.104858,312.289001 188.974823,303.395874 
	C187.932129,295.190002 187.342316,286.834778 185.292770,278.869629 
	C182.021667,266.157135 182.349258,253.870255 185.215378,241.099503 
	C188.013626,228.631241 190.547791,215.793350 190.592209,203.108597 
	C190.632996,191.455475 187.202606,179.790176 185.339737,168.364807 
	C192.324051,169.190201 192.326782,169.191559 196.201263,161.393799 
	C196.848343,160.091461 197.478287,158.779938 198.085403,157.458542 
	C203.047943,146.657578 202.406036,144.449295 192.832840,137.952667 
	C186.627533,133.741577 185.220551,126.878517 182.766434,120.324081 
	C198.559875,119.096802 204.798630,111.904007 199.021957,101.817574 
	C197.774811,102.843910 196.566177,103.838554 194.634430,105.428291 
	C193.986893,103.106873 193.046875,101.337715 193.079956,99.586945 
	C193.251648,90.503502 193.465576,81.411484 194.048965,72.347183 
	C195.192047,54.587154 187.440979,40.127243 176.508743,27.377024 
	C171.312820,21.317049 163.996933,17.056356 157.565247,12.078965 
	C149.155533,5.570792 139.990265,1.160705 128.946045,1.933238 
	C127.327042,2.046485 125.650124,1.331672 124.000000,1.000000 
	C332.896545,1.000000 541.793091,1.000000 751.000000,1.000000 
	C751.000000,85.354515 751.000000,169.709412 750.649414,254.436172 
	C750.233887,254.654663 750.171448,254.500137 750.103455,254.348083 
	C744.927917,242.766647 737.086975,235.095367 723.323120,237.076584 
	C717.160034,237.963730 710.577026,238.584488 705.137634,241.262115 
	C695.658264,245.928482 686.859314,252.003372 677.900635,257.685669 
	C675.135681,259.439453 673.939148,261.585327 676.876465,264.867981 
	C680.187134,268.567841 682.617554,273.041351 685.586609,277.063354 
	C697.698303,293.470276 709.835449,309.858673 722.035645,326.199799 
	C726.845154,332.641754 731.844177,338.942261 737.088745,345.737091 
	C738.323914,344.027283 739.643677,342.979462 739.911438,341.709747 
	C742.705322,328.462311 745.348389,315.182831 747.993042,301.904236 
	C749.046814,296.613068 750.000671,291.302002 751.000000,286.000000 
M214.056885,425.253632 
	C217.626404,425.502441 221.195068,425.951141 224.765564,425.966217 
	C242.383347,426.040527 260.001587,426.000000 277.790771,426.000000 
	C277.790771,416.517548 277.790771,407.446045 277.790771,397.974426 
	C265.845917,397.974426 254.101807,397.974426 241.972229,397.974426 
	C241.972229,265.839630 241.972229,134.104721 241.972229,2.215427 
	C232.504822,2.215427 223.433304,2.215427 214.003922,2.215427 
	C214.003922,143.049088 214.003922,283.667633 214.056885,425.253632 
M303.067047,352.586731 
	C309.624420,355.830536 315.896667,360.003815 322.799500,362.121582 
	C336.498749,366.324463 349.722198,364.417145 361.619659,355.870789 
	C364.282257,353.958160 366.926056,352.019409 370.312622,349.559448 
	C370.312622,354.721405 370.312622,358.804749 370.312622,362.661926 
	C377.749817,362.661926 384.824524,362.661926 391.663879,362.661926 
	C391.663879,318.921661 391.663879,275.520020 391.663879,232.336517 
	C384.246613,232.336517 377.168488,232.336517 369.671570,232.336517 
	C369.671570,237.020142 369.671570,241.367386 369.671570,246.418457 
	C358.731262,233.428024 344.936432,229.405777 329.564484,231.144272 
	C314.735992,232.821289 303.184174,240.523666 293.923889,252.397400 
	C279.194183,271.284241 276.535187,292.477814 280.627533,315.120209 
	C283.328949,330.066742 291.528320,341.956787 303.067047,352.586731 
M555.484436,214.008469 
	C550.059387,218.763046 544.540222,223.416168 539.251770,228.318146 
	C536.871216,230.524765 537.473755,232.380066 540.811218,232.997437 
	C544.457214,233.671890 548.091858,234.425140 551.756226,234.980896 
	C565.475708,237.061768 579.205383,239.075912 593.028015,241.129456 
	C590.604431,245.717682 588.415222,249.862228 585.946472,254.535904 
	C589.134521,255.195145 591.180603,255.560410 593.197205,256.047577 
	C597.094421,256.989044 601.660706,259.716705 604.675598,258.512939 
	C607.889099,257.229858 609.434570,252.090073 612.100464,248.969147 
	C613.295166,247.570526 615.671387,245.904190 617.127136,246.206955 
	C629.085632,248.693863 641.166199,250.941605 652.786499,254.604416 
	C663.399658,257.949768 671.770203,256.954376 681.051941,249.969330 
	C692.957703,241.009613 705.652954,232.328598 721.777161,231.398743 
	C720.310791,230.308060 718.819885,229.437790 717.211365,229.021927 
	C700.264099,224.640274 683.375305,219.991684 666.313049,216.107880 
	C652.309875,212.920456 638.105408,210.605713 623.969116,208.019287 
	C614.417236,206.271637 604.869019,204.399445 595.242065,203.204453 
	C589.143555,202.447433 582.865051,202.344543 576.736023,202.825119 
	C568.508301,203.470261 562.536987,209.170166 555.484436,214.008469 
M466.702423,231.999695 
	C459.914551,233.485870 454.551941,237.234894 449.771027,243.122589 
	C449.771027,239.369202 449.771027,236.288223 449.771027,233.287811 
	C440.688141,233.287811 431.949310,233.287811 423.279327,233.287811 
	C423.279327,276.639679 423.279327,319.703125 423.279327,362.718903 
	C432.299408,362.718903 441.037292,362.718903 450.000000,362.718903 
	C450.000000,339.968658 449.932220,317.498383 450.045776,295.029022 
	C450.075623,289.122406 450.072601,283.109802 451.129669,277.337250 
	C453.063873,266.774567 458.624634,258.365662 472.207886,259.129242 
	C477.391907,259.420685 482.493866,261.171906 487.744476,262.281372 
	C487.744476,252.574600 487.744476,242.358673 487.744476,231.078812 
	C480.816895,231.393616 474.196564,231.694473 466.702423,231.999695 
M279.000000,122.500000 
	C279.000000,149.912079 279.000000,177.324142 279.000000,204.739288 
	C283.596985,204.739288 287.667206,204.739288 292.000000,204.739288 
	C292.000000,189.689499 291.957642,174.898743 292.058838,160.108963 
	C292.070221,158.443024 292.466370,156.473984 293.409943,155.171204 
	C298.440735,148.225357 304.167847,141.745499 308.787231,134.548050 
	C318.294220,119.735199 323.060913,103.175583 323.829742,85.698318 
	C324.171967,77.919502 322.887970,70.033150 321.952484,62.242374 
	C320.460175,49.814693 316.418152,38.149036 309.809906,27.535282 
	C302.505249,15.803132 292.163330,7.496767 279.000000,1.667330 
	C279.000000,42.001629 279.000000,81.750816 279.000000,122.500000 
M574.571716,310.997467 
	C569.782837,309.466431 565.346008,308.679199 560.125305,310.793579 
	C547.520508,315.898499 534.550476,320.100189 521.735291,324.687317 
	C511.751099,328.261047 501.778412,331.866852 490.484467,335.932159 
	C495.595459,338.558685 498.888092,340.852203 503.790039,339.116882 
	C522.816162,332.381592 541.907532,325.818451 561.099426,319.574921 
	C564.553284,318.451294 568.715027,318.481354 572.341125,319.135895 
	C578.640625,320.272949 584.787476,322.275299 590.980347,323.980347 
	C615.581299,330.753479 640.205139,337.446259 664.761353,344.378326 
	C680.956543,348.950165 697.042236,353.908966 713.195251,358.631805 
	C718.148010,360.079956 723.406738,358.281067 726.139587,354.166046 
	C718.109985,351.606873 710.184937,349.081024 702.651672,346.680054 
	C702.226685,340.690430 705.849121,341.927490 709.346741,343.049194 
	C713.005127,344.222534 716.598389,345.617157 720.294006,346.651123 
	C724.051514,347.702393 727.899048,348.431732 732.550049,349.494720 
	C730.478760,342.544006 725.568604,340.573975 720.707092,339.078827 
	C697.723938,332.010406 674.718018,325.006683 651.627808,318.298126 
	C629.906799,311.987366 608.042114,306.171631 586.310974,299.894684 
	C582.483887,298.789246 578.222229,298.292175 575.893616,293.767365 
	C567.435303,277.331512 558.589111,261.095795 549.999084,244.726959 
	C546.600708,238.251114 546.731750,238.182358 539.002502,239.575089 
	C539.064514,240.214081 538.942566,240.957108 539.217224,241.499207 
	C548.885498,260.583466 558.585632,279.651581 568.295349,298.714844 
	C570.500244,303.043762 573.571411,305.952972 578.815857,306.506073 
	C581.998474,306.841766 585.057007,308.353058 588.171326,309.336182 
	C588.231140,309.983521 588.290955,310.630829 588.350769,311.278168 
	C586.529114,311.851501 584.675598,312.971008 582.893555,312.866943 
	C580.378906,312.720062 577.917114,311.667786 574.571716,310.997467 
M591.000000,97.499657 
	C591.000000,104.148651 591.000000,110.797646 591.000000,117.929070 
	C590.212219,117.393997 589.729797,117.070824 589.251892,116.741066 
	C577.368347,108.541473 565.159424,112.740028 558.969971,119.690475 
	C548.549133,131.392563 547.447876,148.735321 554.790100,162.663605 
	C561.549255,175.485657 579.853516,180.786697 590.028015,170.536407 
	C590.178894,170.384369 590.617126,170.517456 590.927490,170.530426 
	C590.995911,171.956711 591.064392,173.383011 591.128662,174.722809 
	C595.599304,174.722809 599.686523,174.722809 603.719788,174.722809 
	C603.719788,117.038849 603.719788,59.632538 603.719788,2.284732 
	C599.360229,2.284732 595.286682,2.284732 591.000000,2.284732 
	C591.000000,33.879219 591.000000,65.189507 591.000000,97.499657 
M484.000000,88.500000 
	C484.000000,59.759113 484.000000,31.018223 484.000000,2.253285 
	C479.417358,2.253285 475.347961,2.253285 470.935913,2.253285 
	C470.935913,40.840523 470.935913,79.176231 470.935913,117.805275 
	C457.839752,106.777824 441.650055,113.592979 435.039703,125.854637 
	C429.291443,136.517181 429.140625,147.925278 433.244141,158.847839 
	C436.197449,166.708832 441.742249,172.905579 450.900940,175.171280 
	C458.324799,177.007751 464.541199,175.309479 470.787598,171.015396 
	C470.968018,172.573807 471.102448,173.734970 471.212036,174.681580 
	C475.700623,174.681580 479.776093,174.681580 484.000000,174.681580 
	C484.000000,146.075623 484.000000,117.787811 484.000000,88.500000 
M377.488007,120.014549 
	C369.254944,130.186722 366.940186,141.720490 370.039581,154.281189 
	C373.952332,170.137970 392.996918,183.284653 409.683807,170.852783 
	C410.004669,170.613724 410.459595,170.554520 410.918823,170.387009 
	C410.995880,171.989838 411.064026,173.406601 411.140656,175.000000 
	C413.355835,175.000000 415.204926,174.785629 416.986572,175.041214 
	C421.839813,175.737427 423.206116,173.790573 423.110474,168.971771 
	C422.810211,153.834671 423.109344,138.686813 422.965454,123.545120 
	C422.850037,111.399498 425.333679,113.117523 412.026215,113.039856 
	C411.732086,113.038132 411.436493,113.287964 411.142487,113.425194 
	C411.037476,114.812706 410.932434,116.200211 410.805420,117.878670 
	C404.418365,113.148689 397.743835,110.470840 390.290070,113.115768 
	C385.986847,114.642761 382.093384,117.324432 377.488007,120.014549 
M617.915894,164.373535 
	C619.202637,165.675339 620.481812,166.984619 621.777283,168.277679 
	C629.120728,175.607452 637.671509,177.822876 647.411377,173.930710 
	C650.048035,172.877060 652.351990,170.990891 655.111572,169.301392 
	C655.111572,171.385315 655.111572,173.017899 655.111572,174.646118 
	C658.820618,174.646118 662.366455,174.646118 665.665405,174.646118 
	C665.665405,153.893158 665.665405,133.495026 665.665405,113.295670 
	C661.913025,113.295670 658.499084,113.295670 655.102051,113.295670 
	C655.013550,115.281616 654.938293,116.971054 654.823669,119.543877 
	C650.009277,113.328979 643.861755,111.609238 637.725647,112.182816 
	C625.768311,113.300529 618.100281,120.637589 614.035156,131.676270 
	C609.908203,142.882645 611.697632,153.615723 617.915894,164.373535 
M533.869751,116.339394 
	C525.187073,111.682541 516.549133,111.196709 508.334808,117.216545 
	C494.484344,127.366798 494.098877,152.517929 501.971985,164.342789 
	C509.615906,175.823318 523.260254,178.555908 532.639648,172.984802 
	C533.677246,172.368515 534.814209,170.968491 534.892578,169.860321 
	C535.167419,165.975983 534.999268,162.060287 534.999268,157.954422 
	C520.284424,163.673370 511.132233,160.667755 510.242279,149.772720 
	C521.495544,149.772720 532.715637,149.772720 543.892700,149.772720 
	C544.900757,129.875000 541.949829,123.244270 533.869751,116.339394 
M569.412048,425.041168 
	C570.878235,425.594513 572.344421,426.147888 573.355225,426.529388 
	C573.355225,408.062256 573.355225,389.668243 573.355225,371.519379 
	C563.684692,368.061401 554.660583,364.834564 545.000000,361.380127 
	C545.000000,363.605042 544.971863,365.058075 545.004333,366.509735 
	C545.330566,381.091278 545.645569,395.673157 546.038208,410.252930 
	C546.071594,411.492188 546.465698,412.802979 547.014038,413.923004 
	C547.510437,414.937103 548.266663,416.134552 549.218567,416.564941 
	C555.636963,419.466736 562.138000,422.185791 569.412048,425.041168 
M347.998749,114.913277 
	C347.490356,114.278488 347.004425,113.116341 346.470001,113.093620 
	C342.713318,112.933899 338.946625,113.008919 335.275574,113.008919 
	C335.275574,133.981247 335.275574,154.373734 335.275574,174.724396 
	C339.627258,174.724396 343.697968,174.724396 348.000000,174.724396 
	C348.000000,162.820099 347.783112,151.184647 348.064484,139.561264 
	C348.316681,129.143127 354.357605,122.389893 364.636108,127.837593 
	C364.880341,127.967041 365.267548,127.826736 365.793854,127.802948 
	C365.793854,123.041084 365.793854,118.275269 365.793854,112.092514 
	C361.500092,112.730659 357.426117,113.235054 353.396667,113.980324 
	C351.554718,114.320999 349.800537,115.136284 347.998749,114.913277 
z"/>
<path fill="#201717" opacity="1.000000" stroke="none" 
	d="
M123.531601,1.000000 
	C125.650124,1.331672 127.327042,2.046485 128.946045,1.933238 
	C139.990265,1.160705 149.155533,5.570792 157.565247,12.078965 
	C163.996933,17.056356 171.312820,21.317049 176.508743,27.377024 
	C187.440979,40.127243 195.192047,54.587154 194.048965,72.347183 
	C193.465576,81.411484 193.251648,90.503502 193.079956,99.586945 
	C193.046875,101.337715 193.986893,103.106873 194.634430,105.428291 
	C196.566177,103.838554 197.774811,102.843910 199.021957,101.817574 
	C204.798630,111.904007 198.559875,119.096802 182.766434,120.324081 
	C185.220551,126.878517 186.627533,133.741577 192.832840,137.952667 
	C202.406036,144.449295 203.047943,146.657578 198.085403,157.458542 
	C197.478287,158.779938 196.848343,160.091461 196.201263,161.393799 
	C192.326782,169.191559 192.324051,169.190201 185.339737,168.364807 
	C187.202606,179.790176 190.632996,191.455475 190.592209,203.108597 
	C190.547791,215.793350 188.013626,228.631241 185.215378,241.099503 
	C182.349258,253.870255 182.021667,266.157135 185.292770,278.869629 
	C187.342316,286.834778 187.932129,295.190002 188.974823,303.395874 
	C190.104858,312.289001 191.833450,321.218140 191.767395,330.120178 
	C191.699112,339.325836 190.475525,348.665314 188.538223,357.684418 
	C184.758743,375.279968 177.102081,391.303131 167.444931,406.517365 
	C165.013702,410.347626 164.341721,415.735107 164.144135,420.460602 
	C163.534180,435.049316 156.379181,446.005402 146.066986,455.423889 
	C142.756912,458.447052 138.884293,459.817261 133.770218,458.599884 
	C134.439896,455.870758 135.097672,453.190247 135.755432,450.509705 
	C135.371231,450.378967 134.987030,450.248230 134.602844,450.117523 
	C133.079498,455.084869 130.837204,459.964294 130.216232,465.041992 
	C129.453552,471.278534 129.433975,477.768951 130.329681,483.971039 
	C130.729156,486.737061 133.943481,489.277466 136.262802,491.525665 
	C137.985641,493.195648 140.324707,494.229980 142.969513,495.917694 
	C138.344788,497.636871 134.789948,498.958313 131.117554,500.639893 
	C126.975456,501.000000 122.950912,501.000000 118.367096,500.658813 
	C115.932388,498.396790 113.370270,496.798889 112.290779,494.503632 
	C104.067764,477.019806 101.866440,458.667419 103.840187,439.445679 
	C105.584595,422.457367 110.168808,406.243378 115.064011,390.051758 
	C116.460304,385.433380 118.525627,381.017242 120.505608,375.940582 
	C116.092590,375.940582 112.631706,375.940582 108.084717,375.940582 
	C112.352936,366.680237 116.320457,358.072266 120.260765,349.523346 
	C115.787354,351.140717 111.567352,354.159149 107.937836,353.565765 
	C104.185898,352.952362 101.007523,348.830688 97.948479,346.522980 
	C97.834938,346.944946 97.179115,348.464478 97.044250,350.028900 
	C95.975090,362.430786 94.940353,374.836609 94.047737,387.252167 
	C93.809418,390.566895 92.882675,392.370544 89.074051,392.052521 
	C75.227676,390.896301 62.128193,387.330170 49.981136,380.498108 
	C38.017117,373.768982 27.660194,365.072144 19.610405,353.977936 
	C13.037897,344.919739 7.176625,335.345459 1.000001,326.000000 
	C1.000000,227.645767 1.000000,129.291550 1.358952,30.369093 
	C6.324236,26.621969 14.397937,27.570238 14.377688,18.308863 
	C22.759443,21.863642 26.838428,29.804296 33.525051,34.591591 
	C36.010296,25.128540 31.003338,15.392433 34.767052,5.883398 
	C45.024723,18.839275 47.582397,35.443703 57.280357,48.945896 
	C58.584545,45.883495 59.220730,42.791733 59.668194,39.672897 
	C61.121952,29.540047 67.208336,22.320570 75.296753,17.119492 
	C84.510033,11.195086 94.402649,6.327123 104.000000,0.999999 
	C110.354401,1.000000 116.708794,1.000000 123.531601,1.000000 
M147.460602,442.231018 
	C148.308792,440.625763 149.555939,439.109955 149.939209,437.400421 
	C152.118301,427.681030 154.044037,417.905029 156.180405,408.175598 
	C156.535065,406.560516 157.153168,404.095398 158.247284,403.707001 
	C163.104324,401.982849 164.944458,397.899994 166.834488,393.860321 
	C180.149384,365.401672 185.218826,335.631317 180.434738,304.448059 
	C177.334137,284.237976 173.757553,264.101318 170.572968,243.903564 
	C168.384567,230.023956 166.502884,216.095978 164.365662,201.373672 
	C153.794556,217.293991 148.353760,234.152191 147.671524,252.823425 
	C146.257462,250.573547 145.100174,248.348526 145.256042,246.219635 
	C146.152908,233.968979 145.758209,221.429016 150.596985,209.839417 
	C156.639191,195.367477 156.273132,180.254257 155.964783,165.106781 
	C155.848038,159.371902 151.920273,156.085373 147.236557,153.998459 
	C146.095169,153.489868 143.230957,154.936630 142.300217,156.276917 
	C140.534851,158.819153 139.978592,162.191757 138.250031,164.770279 
	C126.741920,181.937256 121.805336,200.914062 121.987488,221.421997 
	C122.002983,223.165939 121.151100,224.917618 120.549171,227.261353 
	C120.976158,227.857483 121.871773,229.045807 122.702400,230.277954 
	C127.054924,236.734253 131.536880,242.710236 138.188660,247.488052 
	C143.822220,251.534500 149.343536,258.017609 147.600662,266.057922 
	C145.904221,273.884064 146.012894,281.170593 148.782166,288.550568 
	C150.757370,293.814392 150.415848,298.869263 147.917465,303.978363 
	C141.391464,317.323761 132.776855,329.714935 129.951843,344.773468 
	C129.281677,348.345795 126.358559,351.454010 124.824295,354.931274 
	C124.372269,355.955750 125.130272,357.514130 125.333755,358.827820 
	C126.465752,358.366730 128.071838,358.229065 128.645966,357.387421 
	C130.888214,354.100494 132.939911,350.662872 134.803787,347.144318 
	C136.771118,343.430450 138.443542,339.560425 140.442612,335.341095 
	C144.409378,339.501617 142.829849,343.426025 141.516495,347.051636 
	C137.614243,357.824066 133.371094,368.472626 129.416870,379.226807 
	C123.403938,395.580017 116.811272,411.766876 111.785202,428.422821 
	C106.817268,444.886047 107.416580,461.677734 114.110535,477.830963 
	C115.351097,480.824554 117.515228,483.435394 119.253090,486.222900 
	C119.850983,486.024658 120.448875,485.826416 121.046761,485.628174 
	C119.402611,472.687622 119.813255,460.013153 126.178078,448.410950 
	C132.362183,437.138214 139.393387,426.406158 148.241409,416.761414 
	C148.672104,418.678467 148.624527,420.400116 148.305832,422.070007 
	C147.152390,428.113800 145.984344,434.157104 144.657135,440.164185 
	C144.178543,442.330292 143.673615,444.025574 147.460602,442.231018 
M59.046799,67.632141 
	C59.669559,72.042778 60.292316,76.453407 60.915077,80.864037 
	C61.432167,80.904419 61.949257,80.944801 62.466347,80.985184 
	C64.580879,78.232353 66.695419,75.479530 69.037781,72.430107 
	C69.037781,78.136787 69.076195,83.162834 69.025841,88.187988 
	C68.984154,92.347618 69.526260,96.667656 68.596626,100.632156 
	C66.561981,109.308998 67.500992,117.282310 72.528786,125.302162 
	C75.909233,120.818230 79.242737,116.396561 82.576241,111.974892 
	C83.074661,112.195221 83.573074,112.415550 84.071487,112.635880 
	C81.386093,124.783768 78.700691,136.931656 75.880150,149.690887 
	C78.503159,148.027588 81.009033,146.438568 84.108437,144.473175 
	C83.695816,156.317337 79.952705,166.452148 72.476799,174.451813 
	C67.757645,179.501587 66.672485,184.989670 66.069901,191.082443 
	C65.332481,198.538498 64.756798,206.010818 64.156029,213.479721 
	C64.087074,214.337036 64.305405,215.217453 64.448532,216.679672 
	C68.002808,212.942184 70.828293,209.483032 74.154259,206.601578 
	C78.003113,203.267090 78.958641,199.294220 79.488724,194.379471 
	C80.822525,182.013168 82.994316,169.735519 84.930237,157.438065 
	C85.175835,155.877930 86.019226,154.411911 86.733238,152.509018 
	C87.527740,164.913605 88.080093,176.523956 89.084213,188.095093 
	C89.687187,195.043503 90.666183,201.998779 92.078850,208.826279 
	C93.487236,215.633072 96.456223,216.782852 102.889374,214.788361 
	C104.752708,214.210678 107.623611,214.707565 109.207924,215.852768 
	C112.628181,218.325012 115.514069,221.536514 118.942474,224.749054 
	C118.942474,222.851242 119.253502,221.055817 118.892021,219.407898 
	C116.542389,208.696503 118.575081,198.460144 122.716286,188.684418 
	C125.114403,183.023407 125.985115,177.747772 123.872322,171.887894 
	C123.176994,169.959396 123.201057,167.568878 123.553345,165.501617 
	C124.837669,157.964996 126.329330,150.460724 127.920563,142.982071 
	C128.215149,141.597549 129.334000,140.388412 130.072418,139.098328 
	C129.239578,149.813614 125.458069,160.000092 128.641693,171.310043 
	C142.167831,158.490952 141.673294,141.771332 144.872131,125.319641 
	C133.798279,132.982254 124.045685,142.879913 109.574707,135.389969 
	C102.453293,147.233032 105.763153,160.315613 104.193954,172.840485 
	C103.097923,171.469543 102.494141,170.036789 101.981140,168.572235 
	C98.895218,159.762268 101.380325,151.206177 102.899544,142.508041 
	C106.894096,119.637642 116.129234,99.726486 134.225235,84.519646 
	C137.412170,81.841522 140.471115,79.008675 143.538589,76.192192 
	C144.576050,75.239639 145.457275,74.116943 146.822968,72.618904 
	C144.287659,71.554024 142.403076,70.476044 140.375366,69.954414 
	C115.917152,63.662556 91.463638,57.348068 66.945023,51.298374 
	C61.092644,49.854374 56.306370,55.482830 57.747162,61.438229 
	C58.176598,63.213268 58.580757,64.994423 59.046799,67.632141 
M105.599129,50.946808 
	C120.367104,54.824955 135.178162,58.549313 149.879120,62.666714 
	C154.859360,64.061562 157.876953,62.863647 160.576797,58.482960 
	C169.150940,44.570774 168.913651,40.895809 159.190262,27.776741 
	C152.835541,19.202778 145.090271,13.277348 134.270325,12.149333 
	C126.504868,11.339760 118.721939,10.631758 110.929840,10.156684 
	C89.894653,8.874199 78.442436,22.516750 68.200996,37.918705 
	C67.891113,38.384735 68.064117,39.171864 67.966614,40.364029 
	C80.300606,43.848663 92.553215,47.310310 105.599129,50.946808 
M112.346420,127.269897 
	C111.106171,131.105850 112.865929,133.143066 116.458763,132.180695 
	C124.410805,130.050690 132.218719,127.368187 140.039062,124.771431 
	C141.896988,124.154503 143.482895,122.694313 145.347519,122.125854 
	C153.010544,119.789658 165.764633,126.291977 168.359314,133.883102 
	C168.718292,134.933304 167.977386,136.359451 167.574753,138.535034 
	C165.160889,135.854202 163.553436,133.994965 161.867645,132.209717 
	C155.061584,125.002090 151.555862,125.533203 147.099045,134.416367 
	C146.875244,134.862427 146.667236,135.319016 146.488937,135.784882 
	C144.916840,139.892273 145.434174,143.183350 149.768997,145.387558 
	C154.063080,147.571030 158.105316,150.265533 162.453156,152.323639 
	C167.990402,154.944763 173.629761,157.420395 179.406235,159.440842 
	C183.144821,160.748489 188.753677,157.124863 190.641113,153.005035 
	C192.466171,149.021347 189.632080,147.207901 187.098175,145.300659 
	C181.970245,141.440918 178.814667,136.306885 177.055069,130.211441 
	C174.717468,122.113747 172.341797,114.027054 169.781403,105.246040 
	C160.003799,110.812325 150.695724,115.921555 141.590393,121.369591 
	C136.531647,124.396400 131.600677,125.090569 125.662292,122.497871 
	C129.159760,121.622658 132.047531,120.900017 134.935303,120.177376 
	C118.807274,115.947777 117.470795,116.379417 112.346420,127.269897 
M63.755344,233.252594 
	C59.107632,241.541855 51.760376,248.490158 51.001305,258.759521 
	C53.293030,256.361237 55.076832,253.667679 56.832863,250.956131 
	C58.663891,248.128723 60.580860,246.002441 64.542656,247.624359 
	C68.302528,249.163589 70.108727,251.471283 69.688492,255.613617 
	C69.310135,259.343262 69.241013,263.104248 69.035492,266.851410 
	C69.675011,266.976166 70.314522,267.100952 70.954041,267.225708 
	C71.280891,265.924316 72.145866,264.479370 71.843430,263.345886 
	C70.367432,257.814056 72.332138,253.258850 75.286049,248.828735 
	C79.894463,241.917313 84.466766,234.980972 88.976532,228.004868 
	C92.732407,222.194946 90.355408,215.501526 83.860229,212.781570 
	C80.585854,211.410400 78.259720,211.832809 76.225952,214.938202 
	C72.311737,220.914948 68.164413,226.739029 63.755344,233.252594 
M81.370918,249.615646 
	C84.202454,248.199951 86.468033,249.132111 87.425186,251.877350 
	C88.657021,255.410431 89.293152,259.151215 90.112976,262.504333 
	C98.014038,253.500778 106.336372,244.017181 115.622108,233.435745 
	C111.580185,229.969406 107.475761,226.295639 103.158249,222.892181 
	C102.403610,222.297302 100.151535,222.313461 99.606865,222.936081 
	C92.613579,230.930191 85.785378,239.069778 79.046616,247.280243 
	C78.848892,247.521133 80.087448,248.940857 81.370918,249.615646 
M102.377151,252.988907 
	C100.709801,255.623871 96.125832,257.725433 100.436852,261.558655 
	C105.349159,265.926544 106.239418,270.582062 102.218079,275.978607 
	C101.891151,276.417328 101.921227,277.122131 101.465111,279.073914 
	C103.849869,276.860535 105.409111,275.684418 106.636353,274.228455 
	C112.713882,267.018188 118.404915,259.454559 124.834663,252.578888 
	C128.800262,248.338303 125.263474,245.958115 123.553116,243.198090 
	C121.741333,240.274368 119.042175,238.508469 115.685852,241.347443 
	C111.370918,244.997269 107.150383,248.758682 102.377151,252.988907 
M176.952515,241.084030 
	C184.395950,212.871765 183.773010,192.234940 174.577087,175.005432 
	C173.904678,177.430389 173.058990,179.247543 172.939178,181.111343 
	C172.128616,193.719971 170.638412,206.367325 171.074280,218.943024 
	C171.339890,226.606598 174.649246,234.164703 176.952515,241.084030 
M178.378235,92.166779 
	C181.484146,89.581146 184.590073,86.995514 188.079773,84.090385 
	C186.530579,83.033432 185.933609,82.379143 185.207825,82.168304 
	C175.505386,79.349724 165.794922,76.556961 156.053574,73.877274 
	C155.082977,73.610268 153.564117,73.739204 152.865982,74.341141 
	C148.701019,77.932152 144.702393,81.716080 140.647949,85.435272 
	C140.801514,86.008797 140.955063,86.582321 141.108627,87.155846 
	C147.284409,87.885551 153.444046,88.841545 159.640350,89.283592 
	C166.315247,89.759781 172.281662,87.961632 176.467621,81.840912 
	C176.589539,85.140411 176.227585,87.922379 176.175003,90.710190 
	C176.162979,91.348259 177.217041,92.006439 178.378235,92.166779 
M135.829880,91.142265 
	C133.820053,92.994514 131.810211,94.846771 129.203995,97.248642 
	C138.079834,100.291695 145.910904,103.388870 153.981476,105.619392 
	C161.058670,107.575371 168.658783,101.468971 169.777939,93.542786 
	C165.817169,93.542786 161.824799,93.956146 157.961441,93.427223 
	C154.051407,92.891914 150.323685,91.033447 146.413712,90.486427 
	C143.185257,90.034752 139.807404,90.651093 135.829880,91.142265 
M121.056885,268.744568 
	C121.576340,280.217896 128.847092,284.962189 137.642929,279.549957 
	C134.548492,278.002014 131.581512,276.051270 128.323456,275.020477 
	C125.126373,274.008972 122.571922,273.164154 123.693336,269.093719 
	C124.987022,264.398010 127.400192,262.766449 131.380051,263.840973 
	C133.873413,264.514191 136.372086,265.167725 138.831833,265.820404 
	C140.822845,259.715393 137.861267,255.885941 128.157730,252.489273 
	C125.842697,257.552856 123.475510,262.730560 121.056885,268.744568 
M180.546219,70.825081 
	C180.880157,70.052101 181.685165,69.103806 181.473114,68.534027 
	C179.858643,64.196114 178.185593,59.867100 176.237610,55.671432 
	C175.196854,53.429832 173.575012,51.458023 171.973694,48.992241 
	C168.968887,55.093826 166.448990,60.210762 163.722321,65.747536 
	C169.129669,67.380798 174.460083,68.990822 180.546219,70.825081 
M132.031250,115.336876 
	C135.380829,115.336876 138.730392,115.336876 143.143356,115.336876 
	C137.078506,110.137039 132.090607,105.860558 126.718018,101.254250 
	C123.913216,104.735413 120.924927,108.444313 116.975067,113.346657 
	C122.501251,114.101646 126.820770,114.691780 132.031250,115.336876 
M55.354004,260.108429 
	C54.760315,265.637451 57.320934,268.370026 66.129395,270.512848 
	C66.487511,266.020813 67.369118,261.671539 67.018288,257.424042 
	C66.685822,253.398880 61.342796,251.599213 58.697254,254.323257 
	C57.362255,255.697876 56.657715,257.684784 55.354004,260.108429 
M82.950455,267.451019 
	C84.099030,265.827271 85.364334,264.272369 86.371666,262.565277 
	C88.412872,259.106110 87.431366,253.809189 84.617584,252.448044 
	C82.447067,251.398117 76.513634,254.555664 76.241669,257.828278 
	C75.992050,260.832092 77.420311,264.080109 78.602264,267.022552 
	C78.888710,267.735626 81.115074,267.669403 82.950455,267.451019 
M185.166031,107.069763 
	C184.382477,104.257271 183.598907,101.444778 182.382355,97.078087 
	C179.053635,99.504829 175.414322,100.887306 174.295410,103.394569 
	C173.469772,105.244652 175.203659,109.913277 177.089539,110.930855 
	C180.494995,112.768372 184.867111,112.814384 188.835556,113.608551 
	C188.957367,113.139908 189.079193,112.671272 189.201019,112.202629 
	C187.980652,110.723679 186.760284,109.244720 185.166031,107.069763 
M169.203476,36.435143 
	C172.494781,44.617920 176.772919,52.133808 183.724319,57.879436 
	C182.006409,48.682732 177.291763,41.164188 170.812363,34.650635 
	C170.701340,34.539032 169.678818,35.334129 169.203476,36.435143 
M91.234940,273.123627 
	C92.243904,274.775299 93.252861,276.426971 94.571716,278.585968 
	C97.395309,275.218140 102.798538,273.773132 99.733360,268.344635 
	C98.753387,266.609070 95.712395,264.322296 94.516647,264.758881 
	C91.453941,265.877106 88.612778,268.259979 91.234940,273.123627 
M126.991837,267.951355 
	C128.873322,272.794952 133.628433,272.347046 137.708237,274.651794 
	C136.257980,268.316864 132.500397,267.173859 126.991837,267.951355 
z"/>
<path fill="#FFFFFF" opacity="1.000000" stroke="none" 
	d="
M1.000001,326.468658 
	C7.176625,335.345459 13.037897,344.919739 19.610405,353.977936 
	C27.660194,365.072144 38.017117,373.768982 49.981136,380.498108 
	C62.128193,387.330170 75.227676,390.896301 89.074051,392.052521 
	C92.882675,392.370544 93.809418,390.566895 94.047737,387.252167 
	C94.940353,374.836609 95.975090,362.430786 97.044250,350.028900 
	C97.179115,348.464478 97.834938,346.944946 97.948479,346.522980 
	C101.007523,348.830688 104.185898,352.952362 107.937836,353.565765 
	C111.567352,354.159149 115.787354,351.140717 120.260765,349.523346 
	C116.320457,358.072266 112.352936,366.680237 108.084717,375.940582 
	C112.631706,375.940582 116.092590,375.940582 120.505608,375.940582 
	C118.525627,381.017242 116.460304,385.433380 115.064011,390.051758 
	C110.168808,406.243378 105.584595,422.457367 103.840187,439.445679 
	C101.866440,458.667419 104.067764,477.019806 112.290779,494.503632 
	C113.370270,496.798889 115.932388,498.396790 117.903915,500.658813 
	C79.058510,501.000000 40.117020,501.000000 1.000000,501.000000 
	C1.000000,442.979218 1.000000,384.958282 1.000001,326.468658 
z"/>
<path fill="#000000" opacity="1.000000" stroke="none" 
	d="
M630.399963,501.000000 
	C619.565063,495.422424 609.201904,489.705261 598.681885,484.292999 
	C564.643555,466.781128 530.539612,449.396851 496.485657,431.915222 
	C492.914917,430.082123 493.255737,426.453125 492.995728,423.163849 
	C492.001068,410.580017 490.990936,397.997375 489.984375,385.414490 
	C488.990936,372.995087 487.852386,360.584930 487.065308,348.152496 
	C486.717041,342.651611 487.294189,342.260437 492.591644,343.947815 
	C508.011688,348.859467 523.384460,353.923065 538.707581,359.127563 
	C539.759216,359.484772 540.867920,361.477783 540.905823,362.741364 
	C541.382324,378.652161 541.703125,394.568085 541.983215,410.484100 
	C542.105957,417.455841 543.022461,418.357941 549.517700,421.075867 
	C558.968323,425.030487 568.209045,429.486603 577.500000,433.710999 
	C577.500000,413.870087 577.500000,394.225769 577.500000,374.145477 
	C578.247070,374.145477 579.432678,373.833923 580.360168,374.191650 
	C597.394897,380.761566 614.370300,387.486450 631.432129,393.984253 
	C635.040405,395.358368 636.011780,397.812317 636.007263,401.216766 
	C635.989441,414.713287 636.125793,428.211243 635.968811,441.705933 
	C635.762329,459.455322 635.357971,477.202728 634.961182,494.949249 
	C634.922424,496.685669 634.342041,498.410034 634.006531,500.570007 
	C632.933289,501.000000 631.866638,501.000000 630.399963,501.000000 
z"/>
<path fill="#000000" opacity="1.000000" stroke="none" 
	d="
M644.333313,501.000000 
	C644.000000,482.510590 643.872009,464.020020 644.039795,445.532135 
	C644.178101,430.286591 644.511475,415.037262 645.193237,399.809082 
	C645.280029,397.869659 647.611511,395.117218 649.553833,394.312988 
	C673.955261,384.208740 698.460510,374.353729 722.983459,364.545532 
	C726.974792,362.949127 731.179993,361.887604 736.457886,360.205444 
	C735.939575,368.144745 735.486084,375.145905 735.024231,382.146484 
	C734.688965,387.229034 734.333801,392.310272 734.002625,397.393066 
	C733.329529,407.723328 732.851074,418.070557 731.939941,428.379639 
	C731.239075,436.309418 730.047363,444.198364 728.928589,452.084869 
	C728.809143,452.927094 727.865967,453.889862 727.052612,454.361298 
	C708.983521,464.834747 690.909790,475.301025 672.767761,485.647400 
	C663.982971,490.657288 655.057434,495.420349 646.097778,500.647583 
	C645.555542,501.000000 645.111084,501.000000 644.333313,501.000000 
z"/>
<path fill="#000000" opacity="1.000000" stroke="none" 
	d="
M751.000000,285.531342 
	C750.000671,291.302002 749.046814,296.613068 747.993042,301.904236 
	C745.348389,315.182831 742.705322,328.462311 739.911438,341.709747 
	C739.643677,342.979462 738.323914,344.027283 737.088745,345.737091 
	C731.844177,338.942261 726.845154,332.641754 722.035645,326.199799 
	C709.835449,309.858673 697.698303,293.470276 685.586609,277.063354 
	C682.617554,273.041351 680.187134,268.567841 676.876465,264.867981 
	C673.939148,261.585327 675.135681,259.439453 677.900635,257.685669 
	C686.859314,252.003372 695.658264,245.928482 705.137634,241.262115 
	C710.577026,238.584488 717.160034,237.963730 723.323120,237.076584 
	C737.086975,235.095367 744.927917,242.766647 750.103455,254.348083 
	C750.171448,254.500137 750.233887,254.654663 750.649414,254.904022 
	C751.000000,265.020905 751.000000,275.041779 751.000000,285.531342 
z"/>
<path fill="#FFFFFF" opacity="1.000000" stroke="none" 
	d="
M103.531342,0.999999 
	C94.402649,6.327123 84.510033,11.195086 75.296753,17.119492 
	C67.208336,22.320570 61.121952,29.540047 59.668194,39.672897 
	C59.220730,42.791733 58.584545,45.883495 57.280357,48.945896 
	C47.582397,35.443703 45.024723,18.839275 34.767052,5.883398 
	C31.003338,15.392433 36.010296,25.128540 33.525051,34.591591 
	C26.838428,29.804296 22.759443,21.863642 14.377688,18.308863 
	C14.397937,27.570238 6.324236,26.621969 1.358952,29.900436 
	C1.000000,20.365480 1.000000,10.730961 1.000000,1.000000 
	C35.020840,1.000000 69.041763,1.000000 103.531342,0.999999 
z"/>
<path fill="#000000" opacity="1.000000" stroke="none" 
	d="
M214.030396,424.769897 
	C214.003922,283.667633 214.003922,143.049088 214.003922,2.215427 
	C223.433304,2.215427 232.504822,2.215427 241.972229,2.215427 
	C241.972229,134.104721 241.972229,265.839630 241.972229,397.974426 
	C254.101807,397.974426 265.845917,397.974426 277.790771,397.974426 
	C277.790771,407.446045 277.790771,416.517548 277.790771,426.000000 
	C260.001587,426.000000 242.383347,426.040527 224.765564,425.966217 
	C221.195068,425.951141 217.626404,425.502441 214.030396,424.769897 
z"/>
<path fill="#000000" opacity="1.000000" stroke="none" 
	d="
M302.822357,352.318054 
	C291.528320,341.956787 283.328949,330.066742 280.627533,315.120209 
	C276.535187,292.477814 279.194183,271.284241 293.923889,252.397400 
	C303.184174,240.523666 314.735992,232.821289 329.564484,231.144272 
	C344.936432,229.405777 358.731262,233.428024 369.671570,246.418457 
	C369.671570,241.367386 369.671570,237.020142 369.671570,232.336517 
	C377.168488,232.336517 384.246613,232.336517 391.663879,232.336517 
	C391.663879,275.520020 391.663879,318.921661 391.663879,362.661926 
	C384.824524,362.661926 377.749817,362.661926 370.312622,362.661926 
	C370.312622,358.804749 370.312622,354.721405 370.312622,349.559448 
	C366.926056,352.019409 364.282257,353.958160 361.619659,355.870789 
	C349.722198,364.417145 336.498749,366.324463 322.799500,362.121582 
	C315.896667,360.003815 309.624420,355.830536 302.822357,352.318054 
M321.492401,330.045624 
	C332.639343,338.911377 350.843445,335.000824 359.040985,322.957458 
	C368.039520,309.737274 369.137726,295.634674 363.908264,280.948242 
	C360.142792,270.373322 352.582123,263.162170 341.458862,261.161102 
	C330.796783,259.243073 320.993469,262.311951 314.413513,271.278687 
	C300.788300,289.846252 303.318665,315.595001 321.492401,330.045624 
z"/>
<path fill="#000000" opacity="1.000000" stroke="none" 
	d="
M555.745850,213.748444 
	C562.536987,209.170166 568.508301,203.470261 576.736023,202.825119 
	C582.865051,202.344543 589.143555,202.447433 595.242065,203.204453 
	C604.869019,204.399445 614.417236,206.271637 623.969116,208.019287 
	C638.105408,210.605713 652.309875,212.920456 666.313049,216.107880 
	C683.375305,219.991684 700.264099,224.640274 717.211365,229.021927 
	C718.819885,229.437790 720.310791,230.308060 721.777161,231.398743 
	C705.652954,232.328598 692.957703,241.009613 681.051941,249.969330 
	C671.770203,256.954376 663.399658,257.949768 652.786499,254.604416 
	C641.166199,250.941605 629.085632,248.693863 617.127136,246.206955 
	C615.671387,245.904190 613.295166,247.570526 612.100464,248.969147 
	C609.434570,252.090073 607.889099,257.229858 604.675598,258.512939 
	C601.660706,259.716705 597.094421,256.989044 593.197205,256.047577 
	C591.180603,255.560410 589.134521,255.195145 585.946472,254.535904 
	C588.415222,249.862228 590.604431,245.717682 593.028015,241.129456 
	C579.205383,239.075912 565.475708,237.061768 551.756226,234.980896 
	C548.091858,234.425140 544.457214,233.671890 540.811218,232.997437 
	C537.473755,232.380066 536.871216,230.524765 539.251770,228.318146 
	C544.540222,223.416168 550.059387,218.763046 555.745850,213.748444 
M596.963562,243.355759 
	C595.684204,245.829529 594.404785,248.303299 593.113281,250.800552 
	C605.203186,255.577621 602.587952,254.783157 608.529236,244.766800 
	C604.919739,243.848175 601.354431,242.940765 597.450256,241.947128 
	C609.549500,225.513565 614.190491,223.254227 624.703125,228.172729 
	C621.211609,233.894119 615.070374,237.783356 613.373413,241.957458 
	C618.447266,237.887634 625.066589,232.578186 631.685913,227.268723 
	C631.381165,226.768631 631.076416,226.268539 630.771729,225.768448 
	C628.337402,225.240341 625.921692,224.392517 623.464966,224.250061 
	C618.196350,223.944519 612.500122,220.649078 607.828857,225.740189 
	C604.082092,229.823700 600.856567,234.423431 596.855896,238.221130 
	C594.653625,240.311691 596.810242,241.182236 596.963562,243.355759 
z"/>
<path fill="#000000" opacity="1.000000" stroke="none" 
	d="
M467.139343,231.997498 
	C474.196564,231.694473 480.816895,231.393616 487.744476,231.078812 
	C487.744476,242.358673 487.744476,252.574600 487.744476,262.281372 
	C482.493866,261.171906 477.391907,259.420685 472.207886,259.129242 
	C458.624634,258.365662 453.063873,266.774567 451.129669,277.337250 
	C450.072601,283.109802 450.075623,289.122406 450.045776,295.029022 
	C449.932220,317.498383 450.000000,339.968658 450.000000,362.718903 
	C441.037292,362.718903 432.299408,362.718903 423.279327,362.718903 
	C423.279327,319.703125 423.279327,276.639679 423.279327,233.287811 
	C431.949310,233.287811 440.688141,233.287811 449.771027,233.287811 
	C449.771027,236.288223 449.771027,239.369202 449.771027,243.122589 
	C454.551941,237.234894 459.914551,233.485870 467.139343,231.997498 
z"/>
<path fill="#000000" opacity="1.000000" stroke="none" 
	d="
M279.000000,122.000000 
	C279.000000,81.750816 279.000000,42.001629 279.000000,1.667330 
	C292.163330,7.496767 302.505249,15.803132 309.809906,27.535282 
	C316.418152,38.149036 320.460175,49.814693 321.952484,62.242374 
	C322.887970,70.033150 324.171967,77.919502 323.829742,85.698318 
	C323.060913,103.175583 318.294220,119.735199 308.787231,134.548050 
	C304.167847,141.745499 298.440735,148.225357 293.409943,155.171204 
	C292.466370,156.473984 292.070221,158.443024 292.058838,160.108963 
	C291.957642,174.898743 292.000000,189.689499 292.000000,204.739288 
	C287.667206,204.739288 283.596985,204.739288 279.000000,204.739288 
	C279.000000,177.324142 279.000000,149.912079 279.000000,122.000000 
M308.048828,61.399429 
	C306.083221,49.124199 300.646088,38.585323 292.268982,28.539423 
	C292.268982,64.579811 292.268982,99.575325 292.268982,134.800430 
	C297.463348,130.327286 302.782837,121.013351 306.023621,111.087906 
	C311.282990,94.980339 310.834656,78.580688 308.048828,61.399429 
z"/>
<path fill="#000000" opacity="1.000000" stroke="none" 
	d="
M575.002197,311.000061 
	C577.917114,311.667786 580.378906,312.720062 582.893555,312.866943 
	C584.675598,312.971008 586.529114,311.851501 588.350769,311.278168 
	C588.290955,310.630829 588.231140,309.983521 588.171326,309.336182 
	C585.057007,308.353058 581.998474,306.841766 578.815857,306.506073 
	C573.571411,305.952972 570.500244,303.043762 568.295349,298.714844 
	C558.585632,279.651581 548.885498,260.583466 539.217224,241.499207 
	C538.942566,240.957108 539.064514,240.214081 539.002502,239.575089 
	C546.731750,238.182358 546.600708,238.251114 549.999084,244.726959 
	C558.589111,261.095795 567.435303,277.331512 575.893616,293.767365 
	C578.222229,298.292175 582.483887,298.789246 586.310974,299.894684 
	C608.042114,306.171631 629.906799,311.987366 651.627808,318.298126 
	C674.718018,325.006683 697.723938,332.010406 720.707092,339.078827 
	C725.568604,340.573975 730.478760,342.544006 732.550049,349.494720 
	C727.899048,348.431732 724.051514,347.702393 720.294006,346.651123 
	C716.598389,345.617157 713.005127,344.222534 709.346741,343.049194 
	C705.849121,341.927490 702.226685,340.690430 702.651672,346.680054 
	C710.184937,349.081024 718.109985,351.606873 726.139587,354.166046 
	C723.406738,358.281067 718.148010,360.079956 713.195251,358.631805 
	C697.042236,353.908966 680.956543,348.950165 664.761353,344.378326 
	C640.205139,337.446259 615.581299,330.753479 590.980347,323.980347 
	C584.787476,322.275299 578.640625,320.272949 572.341125,319.135895 
	C568.715027,318.481354 564.553284,318.451294 561.099426,319.574921 
	C541.907532,325.818451 522.816162,332.381592 503.790039,339.116882 
	C498.888092,340.852203 495.595459,338.558685 490.484467,335.932159 
	C501.778412,331.866852 511.751099,328.261047 521.735291,324.687317 
	C534.550476,320.100189 547.520508,315.898499 560.125305,310.793579 
	C565.346008,308.679199 569.782837,309.466431 575.002197,311.000061 
M619.407776,317.002319 
	C618.171326,316.671936 616.920837,316.386078 615.700989,316.002686 
	C612.232727,314.912567 609.352417,314.786621 609.584900,319.939514 
	C632.458191,326.460022 655.643311,333.069397 679.062561,339.745514 
	C679.781738,338.254761 680.446594,336.876648 681.371521,334.959595 
	C673.340088,332.559723 665.721802,330.243591 658.079712,328.008698 
	C645.476746,324.322968 632.858337,320.689758 619.407776,317.002319 
z"/>
<path fill="#000000" opacity="1.000000" stroke="none" 
	d="
M591.000000,96.999725 
	C591.000000,65.189507 591.000000,33.879219 591.000000,2.284732 
	C595.286682,2.284732 599.360229,2.284732 603.719788,2.284732 
	C603.719788,59.632538 603.719788,117.038849 603.719788,174.722809 
	C599.686523,174.722809 595.599304,174.722809 591.128662,174.722809 
	C591.064392,173.383011 590.995911,171.956711 590.924316,170.523941 
	C590.617126,170.517456 590.178894,170.384369 590.028015,170.536407 
	C579.853516,180.786697 561.549255,175.485657 554.790100,162.663605 
	C547.447876,148.735321 548.549133,131.392563 558.969971,119.690475 
	C565.159424,112.740028 577.368347,108.541473 589.251892,116.741066 
	C589.729797,117.070824 590.212219,117.393997 591.000000,117.929070 
	C591.000000,110.797646 591.000000,104.148651 591.000000,96.999725 
M567.989929,131.518204 
	C562.411255,138.443253 561.471130,145.455872 565.750916,153.427856 
	C570.486511,162.248795 581.257996,163.786758 587.161377,156.496033 
	C591.688232,150.905472 592.372925,144.765335 590.839722,138.417114 
	C589.652588,133.501907 586.729553,129.394699 581.281433,127.705795 
	C576.226318,126.138702 572.062866,127.104118 567.989929,131.518204 
z"/>
<path fill="#000000" opacity="1.000000" stroke="none" 
	d="
M484.000000,89.000000 
	C484.000000,117.787811 484.000000,146.075623 484.000000,174.681580 
	C479.776093,174.681580 475.700623,174.681580 471.212036,174.681580 
	C471.102448,173.734970 470.968018,172.573807 470.787598,171.015396 
	C464.541199,175.309479 458.324799,177.007751 450.900940,175.171280 
	C441.742249,172.905579 436.197449,166.708832 433.244141,158.847839 
	C429.140625,147.925278 429.291443,136.517181 435.039703,125.854637 
	C441.650055,113.592979 457.839752,106.777824 470.935913,117.805275 
	C470.935913,79.176231 470.935913,40.840523 470.935913,2.253285 
	C475.347961,2.253285 479.417358,2.253285 484.000000,2.253285 
	C484.000000,31.018223 484.000000,59.759113 484.000000,89.000000 
M466.983032,157.524460 
	C472.369873,150.766052 473.332306,143.492767 470.044922,135.434387 
	C467.108032,128.235153 458.942932,124.699371 452.218750,128.339874 
	C445.582031,131.933029 443.828278,137.995560 443.942413,145.164124 
	C444.160950,158.884232 454.478119,164.900314 466.983032,157.524460 
z"/>
<path fill="#000000" opacity="1.000000" stroke="none" 
	d="
M377.751740,119.750473 
	C382.093384,117.324432 385.986847,114.642761 390.290070,113.115768 
	C397.743835,110.470840 404.418365,113.148689 410.805420,117.878670 
	C410.932434,116.200211 411.037476,114.812706 411.142029,113.422821 
	C411.436493,113.287964 411.732086,113.038132 412.026215,113.039856 
	C425.333679,113.117523 422.850037,111.399498 422.965454,123.545120 
	C423.109344,138.686813 422.810211,153.834671 423.110474,168.971771 
	C423.206116,173.790573 421.839813,175.737427 416.986572,175.041214 
	C415.204926,174.785629 413.355835,175.000000 411.140656,175.000000 
	C411.064026,173.406601 410.995880,171.989838 410.918823,170.387009 
	C410.459595,170.554520 410.004669,170.613724 409.683807,170.852783 
	C392.996918,183.284653 373.952332,170.137970 370.039581,154.281189 
	C366.940186,141.720490 369.254944,130.186722 377.751740,119.750473 
M384.014557,134.832962 
	C383.343079,138.618118 381.930786,142.447723 382.154724,146.179138 
	C382.616699,153.876785 387.853363,160.665802 394.749878,161.001785 
	C402.396637,161.374298 406.735291,157.857513 409.468658,149.048996 
	C411.629608,142.085068 408.426331,132.158997 403.015778,128.989746 
	C397.002533,125.467468 390.473083,125.631805 384.014557,134.832962 
z"/>
<path fill="#000000" opacity="1.000000" stroke="none" 
	d="
M617.634949,164.128448 
	C611.697632,153.615723 609.908203,142.882645 614.035156,131.676270 
	C618.100281,120.637589 625.768311,113.300529 637.725647,112.182816 
	C643.861755,111.609238 650.009277,113.328979 654.823669,119.543877 
	C654.938293,116.971054 655.013550,115.281616 655.102051,113.295670 
	C658.499084,113.295670 661.913025,113.295670 665.665405,113.295670 
	C665.665405,133.495026 665.665405,153.893158 665.665405,174.646118 
	C662.366455,174.646118 658.820618,174.646118 655.111572,174.646118 
	C655.111572,173.017899 655.111572,171.385315 655.111572,169.301392 
	C652.351990,170.990891 650.048035,172.877060 647.411377,173.930710 
	C637.671509,177.822876 629.120728,175.607452 621.777283,168.277679 
	C620.481812,166.984619 619.202637,165.675339 617.634949,164.128448 
M626.019409,137.929169 
	C623.386536,146.130081 625.902893,152.856613 631.994324,158.503815 
	C635.982117,162.200790 642.885254,161.840683 647.171509,158.444672 
	C654.323730,152.777985 654.370361,141.913284 651.813782,136.017212 
	C648.669617,128.766159 642.031372,124.418968 634.646545,128.221710 
	C631.234375,129.978760 629.045837,134.112183 626.019409,137.929169 
z"/>
<path fill="#000000" opacity="1.000000" stroke="none" 
	d="
M534.116577,116.623871 
	C541.949829,123.244270 544.900757,129.875000 543.892700,149.772720 
	C532.715637,149.772720 521.495544,149.772720 510.242279,149.772720 
	C511.132233,160.667755 520.284424,163.673370 534.999268,157.954422 
	C534.999268,162.060287 535.167419,165.975983 534.892578,169.860321 
	C534.814209,170.968491 533.677246,172.368515 532.639648,172.984802 
	C523.260254,178.555908 509.615906,175.823318 501.971985,164.342789 
	C494.098877,152.517929 494.484344,127.366798 508.334808,117.216545 
	C516.549133,111.196709 525.187073,111.682541 534.116577,116.623871 
M518.571716,138.000000 
	C522.666504,138.000000 526.761292,138.000000 530.861633,138.000000 
	C530.705750,132.652130 526.738037,127.518448 522.510132,127.036911 
	C518.394592,126.568192 511.888275,129.417343 510.205078,138.000000 
	C512.714600,138.000000 515.161926,138.000000 518.571716,138.000000 
z"/>
<path fill="#000000" opacity="1.000000" stroke="none" 
	d="
M569.012146,425.002594 
	C562.138000,422.185791 555.636963,419.466736 549.218567,416.564941 
	C548.266663,416.134552 547.510437,414.937103 547.014038,413.923004 
	C546.465698,412.802979 546.071594,411.492188 546.038208,410.252930 
	C545.645569,395.673157 545.330566,381.091278 545.004333,366.509735 
	C544.971863,365.058075 545.000000,363.605042 545.000000,361.380127 
	C554.660583,364.834564 563.684692,368.061401 573.355225,371.519379 
	C573.355225,389.668243 573.355225,408.062256 573.355225,426.529388 
	C572.344421,426.147888 570.878235,425.594513 569.012146,425.002594 
M565.046631,396.527252 
	C565.305847,393.811401 566.670837,390.468018 565.568237,388.524933 
	C563.862305,385.518768 560.637695,383.225128 557.669861,381.195587 
	C556.980347,380.724030 553.799500,382.206299 553.393311,383.361877 
	C552.551819,385.755920 552.412903,388.580231 552.714111,391.141876 
	C553.024292,393.778748 554.682434,396.274597 554.895691,398.901581 
	C555.288391,403.739258 557.724670,406.203644 562.560547,407.176941 
	C563.387634,403.803436 564.173828,400.596680 565.046631,396.527252 
z"/>
<path fill="#000000" opacity="1.000000" stroke="none" 
	d="
M348.002625,115.324799 
	C349.800537,115.136284 351.554718,114.320999 353.396667,113.980324 
	C357.426117,113.235054 361.500092,112.730659 365.793854,112.092514 
	C365.793854,118.275269 365.793854,123.041084 365.793854,127.802948 
	C365.267548,127.826736 364.880341,127.967041 364.636108,127.837593 
	C354.357605,122.389893 348.316681,129.143127 348.064484,139.561264 
	C347.783112,151.184647 348.000000,162.820099 348.000000,174.724396 
	C343.697968,174.724396 339.627258,174.724396 335.275574,174.724396 
	C335.275574,154.373734 335.275574,133.981247 335.275574,113.008919 
	C338.946625,113.008919 342.713318,112.933899 346.470001,113.093620 
	C347.004425,113.116341 347.490356,114.278488 348.002625,115.324799 
z"/>
<path fill="#FDFCFC" opacity="1.000000" stroke="none" 
	d="
M147.184418,442.518188 
	C143.673615,444.025574 144.178543,442.330292 144.657135,440.164185 
	C145.984344,434.157104 147.152390,428.113800 148.305832,422.070007 
	C148.624527,420.400116 148.672104,418.678467 148.241409,416.761414 
	C139.393387,426.406158 132.362183,437.138214 126.178078,448.410950 
	C119.813255,460.013153 119.402611,472.687622 121.046761,485.628174 
	C120.448875,485.826416 119.850983,486.024658 119.253090,486.222900 
	C117.515228,483.435394 115.351097,480.824554 114.110535,477.830963 
	C107.416580,461.677734 106.817268,444.886047 111.785202,428.422821 
	C116.811272,411.766876 123.403938,395.580017 129.416870,379.226807 
	C133.371094,368.472626 137.614243,357.824066 141.516495,347.051636 
	C142.829849,343.426025 144.409378,339.501617 140.442612,335.341095 
	C138.443542,339.560425 136.771118,343.430450 134.803787,347.144318 
	C132.939911,350.662872 130.888214,354.100494 128.645966,357.387421 
	C128.071838,358.229065 126.465752,358.366730 125.333755,358.827820 
	C125.130272,357.514130 124.372269,355.955750 124.824295,354.931274 
	C126.358559,351.454010 129.281677,348.345795 129.951843,344.773468 
	C132.776855,329.714935 141.391464,317.323761 147.917465,303.978363 
	C150.415848,298.869263 150.757370,293.814392 148.782166,288.550568 
	C146.012894,281.170593 145.904221,273.884064 147.600662,266.057922 
	C149.343536,258.017609 143.822220,251.534500 138.188660,247.488052 
	C131.536880,242.710236 127.054924,236.734253 122.702400,230.277954 
	C121.871773,229.045807 120.976158,227.857483 120.549171,227.261353 
	C121.151100,224.917618 122.002983,223.165939 121.987488,221.421997 
	C121.805336,200.914062 126.741920,181.937256 138.250031,164.770279 
	C139.978592,162.191757 140.534851,158.819153 142.300217,156.276917 
	C143.230957,154.936630 146.095169,153.489868 147.236557,153.998459 
	C151.920273,156.085373 155.848038,159.371902 155.964783,165.106781 
	C156.273132,180.254257 156.639191,195.367477 150.596985,209.839417 
	C145.758209,221.429016 146.152908,233.968979 145.256042,246.219635 
	C145.100174,248.348526 146.257462,250.573547 147.671524,252.823425 
	C148.353760,234.152191 153.794556,217.293991 164.365662,201.373672 
	C166.502884,216.095978 168.384567,230.023956 170.572968,243.903564 
	C173.757553,264.101318 177.334137,284.237976 180.434738,304.448059 
	C185.218826,335.631317 180.149384,365.401672 166.834488,393.860321 
	C164.944458,397.899994 163.104324,401.982849 158.247284,403.707001 
	C157.153168,404.095398 156.535065,406.560516 156.180405,408.175598 
	C154.044037,417.905029 152.118301,427.681030 149.939209,437.400421 
	C149.555939,439.109955 148.308792,440.625763 147.184418,442.518188 
z"/>
<path fill="#FCFCFC" opacity="1.000000" stroke="none" 
	d="
M59.021645,67.202461 
	C58.580757,64.994423 58.176598,63.213268 57.747162,61.438229 
	C56.306370,55.482830 61.092644,49.854374 66.945023,51.298374 
	C91.463638,57.348068 115.917152,63.662556 140.375366,69.954414 
	C142.403076,70.476044 144.287659,71.554024 146.822968,72.618904 
	C145.457275,74.116943 144.576050,75.239639 143.538589,76.192192 
	C140.471115,79.008675 137.412170,81.841522 134.225235,84.519646 
	C116.129234,99.726486 106.894096,119.637642 102.899544,142.508041 
	C101.380325,151.206177 98.895218,159.762268 101.981140,168.572235 
	C102.494141,170.036789 103.097923,171.469543 104.193954,172.840485 
	C105.763153,160.315613 102.453293,147.233032 109.574707,135.389969 
	C124.045685,142.879913 133.798279,132.982254 144.872131,125.319641 
	C141.673294,141.771332 142.167831,158.490952 128.641693,171.310043 
	C125.458069,160.000092 129.239578,149.813614 130.072418,139.098328 
	C129.334000,140.388412 128.215149,141.597549 127.920563,142.982071 
	C126.329330,150.460724 124.837669,157.964996 123.553345,165.501617 
	C123.201057,167.568878 123.176994,169.959396 123.872322,171.887894 
	C125.985115,177.747772 125.114403,183.023407 122.716286,188.684418 
	C118.575081,198.460144 116.542389,208.696503 118.892021,219.407898 
	C119.253502,221.055817 118.942474,222.851242 118.942474,224.749054 
	C115.514069,221.536514 112.628181,218.325012 109.207924,215.852768 
	C107.623611,214.707565 104.752708,214.210678 102.889374,214.788361 
	C96.456223,216.782852 93.487236,215.633072 92.078850,208.826279 
	C90.666183,201.998779 89.687187,195.043503 89.084213,188.095093 
	C88.080093,176.523956 87.527740,164.913605 86.733238,152.509018 
	C86.019226,154.411911 85.175835,155.877930 84.930237,157.438065 
	C82.994316,169.735519 80.822525,182.013168 79.488724,194.379471 
	C78.958641,199.294220 78.003113,203.267090 74.154259,206.601578 
	C70.828293,209.483032 68.002808,212.942184 64.448532,216.679672 
	C64.305405,215.217453 64.087074,214.337036 64.156029,213.479721 
	C64.756798,206.010818 65.332481,198.538498 66.069901,191.082443 
	C66.672485,184.989670 67.757645,179.501587 72.476799,174.451813 
	C79.952705,166.452148 83.695816,156.317337 84.108437,144.473175 
	C81.009033,146.438568 78.503159,148.027588 75.880150,149.690887 
	C78.700691,136.931656 81.386093,124.783768 84.071487,112.635880 
	C83.573074,112.415550 83.074661,112.195221 82.576241,111.974892 
	C79.242737,116.396561 75.909233,120.818230 72.528786,125.302162 
	C67.500992,117.282310 66.561981,109.308998 68.596626,100.632156 
	C69.526260,96.667656 68.984154,92.347618 69.025841,88.187988 
	C69.076195,83.162834 69.037781,78.136787 69.037781,72.430107 
	C66.695419,75.479530 64.580879,78.232353 62.466347,80.985184 
	C61.949257,80.944801 61.432167,80.904419 60.915077,80.864037 
	C60.292316,76.453407 59.669559,72.042778 59.021645,67.202461 
M93.839157,172.749680 
	C95.480598,182.969086 97.122032,193.188492 98.763466,203.407913 
	C99.513634,203.282608 100.263794,203.157303 101.013954,203.031998 
	C98.786011,189.274857 96.558060,175.517715 94.330116,161.760574 
	C93.789207,161.839218 93.248291,161.917847 92.707382,161.996475 
	C93.053123,165.283783 93.398872,168.571091 93.839157,172.749680 
z"/>
<path fill="#FDFDFD" opacity="1.000000" stroke="none" 
	d="
M105.202484,50.859383 
	C92.553215,47.310310 80.300606,43.848663 67.966614,40.364029 
	C68.064117,39.171864 67.891113,38.384735 68.200996,37.918705 
	C78.442436,22.516750 89.894653,8.874199 110.929840,10.156684 
	C118.721939,10.631758 126.504868,11.339760 134.270325,12.149333 
	C145.090271,13.277348 152.835541,19.202778 159.190262,27.776741 
	C168.913651,40.895809 169.150940,44.570774 160.576797,58.482960 
	C157.876953,62.863647 154.859360,64.061562 149.879120,62.666714 
	C135.178162,58.549313 120.367104,54.824955 105.202484,50.859383 
z"/>
<path fill="#FAFAFA" opacity="1.000000" stroke="none" 
	d="
M112.537827,126.919281 
	C117.470795,116.379417 118.807274,115.947777 134.935303,120.177376 
	C132.047531,120.900017 129.159760,121.622658 125.662292,122.497871 
	C131.600677,125.090569 136.531647,124.396400 141.590393,121.369591 
	C150.695724,115.921555 160.003799,110.812325 169.781403,105.246040 
	C172.341797,114.027054 174.717468,122.113747 177.055069,130.211441 
	C178.814667,136.306885 181.970245,141.440918 187.098175,145.300659 
	C189.632080,147.207901 192.466171,149.021347 190.641113,153.005035 
	C188.753677,157.124863 183.144821,160.748489 179.406235,159.440842 
	C173.629761,157.420395 167.990402,154.944763 162.453156,152.323639 
	C158.105316,150.265533 154.063080,147.571030 149.768997,145.387558 
	C145.434174,143.183350 144.916840,139.892273 146.488937,135.784882 
	C146.667236,135.319016 146.875244,134.862427 147.099045,134.416367 
	C151.555862,125.533203 155.061584,125.002090 161.867645,132.209717 
	C163.553436,133.994965 165.160889,135.854202 167.574753,138.535034 
	C167.977386,136.359451 168.718292,134.933304 168.359314,133.883102 
	C165.764633,126.291977 153.010544,119.789658 145.347519,122.125854 
	C143.482895,122.694313 141.896988,124.154503 140.039062,124.771431 
	C132.218719,127.368187 124.410805,130.050690 116.458763,132.180695 
	C112.865929,133.143066 111.106171,131.105850 112.537827,126.919281 
z"/>
<path fill="#F9F9F9" opacity="1.000000" stroke="none" 
	d="
M63.934555,232.939514 
	C68.164413,226.739029 72.311737,220.914948 76.225952,214.938202 
	C78.259720,211.832809 80.585854,211.410400 83.860229,212.781570 
	C90.355408,215.501526 92.732407,222.194946 88.976532,228.004868 
	C84.466766,234.980972 79.894463,241.917313 75.286049,248.828735 
	C72.332138,253.258850 70.367432,257.814056 71.843430,263.345886 
	C72.145866,264.479370 71.280891,265.924316 70.954041,267.225708 
	C70.314522,267.100952 69.675011,266.976166 69.035492,266.851410 
	C69.241013,263.104248 69.310135,259.343262 69.688492,255.613617 
	C70.108727,251.471283 68.302528,249.163589 64.542656,247.624359 
	C60.580860,246.002441 58.663891,248.128723 56.832863,250.956131 
	C55.076832,253.667679 53.293030,256.361237 51.001305,258.759521 
	C51.760376,248.490158 59.107632,241.541855 63.934555,232.939514 
z"/>
<path fill="#FAFAFA" opacity="1.000000" stroke="none" 
	d="
M81.013626,249.713287 
	C80.087448,248.940857 78.848892,247.521133 79.046616,247.280243 
	C85.785378,239.069778 92.613579,230.930191 99.606865,222.936081 
	C100.151535,222.313461 102.403610,222.297302 103.158249,222.892181 
	C107.475761,226.295639 111.580185,229.969406 115.622108,233.435745 
	C106.336372,244.017181 98.014038,253.500778 90.112976,262.504333 
	C89.293152,259.151215 88.657021,255.410431 87.425186,251.877350 
	C86.468033,249.132111 84.202454,248.199951 81.013626,249.713287 
z"/>
<path fill="#FAF9F9" opacity="1.000000" stroke="none" 
	d="
M102.633171,252.730469 
	C107.150383,248.758682 111.370918,244.997269 115.685852,241.347443 
	C119.042175,238.508469 121.741333,240.274368 123.553116,243.198090 
	C125.263474,245.958115 128.800262,248.338303 124.834663,252.578888 
	C118.404915,259.454559 112.713882,267.018188 106.636353,274.228455 
	C105.409111,275.684418 103.849869,276.860535 101.465111,279.073914 
	C101.921227,277.122131 101.891151,276.417328 102.218079,275.978607 
	C106.239418,270.582062 105.349159,265.926544 100.436852,261.558655 
	C96.125832,257.725433 100.709801,255.623871 102.633171,252.730469 
z"/>
<path fill="#F9F8F8" opacity="1.000000" stroke="none" 
	d="
M176.771988,241.427094 
	C174.649246,234.164703 171.339890,226.606598 171.074280,218.943024 
	C170.638412,206.367325 172.128616,193.719971 172.939178,181.111343 
	C173.058990,179.247543 173.904678,177.430389 174.577087,175.005432 
	C183.773010,192.234940 184.395950,212.871765 176.771988,241.427094 
z"/>
<path fill="#F9F9F9" opacity="1.000000" stroke="none" 
	d="
M178.079346,92.411072 
	C177.217041,92.006439 176.162979,91.348259 176.175003,90.710190 
	C176.227585,87.922379 176.589539,85.140411 176.467621,81.840912 
	C172.281662,87.961632 166.315247,89.759781 159.640350,89.283592 
	C153.444046,88.841545 147.284409,87.885551 141.108627,87.155846 
	C140.955063,86.582321 140.801514,86.008797 140.647949,85.435272 
	C144.702393,81.716080 148.701019,77.932152 152.865982,74.341141 
	C153.564117,73.739204 155.082977,73.610268 156.053574,73.877274 
	C165.794922,76.556961 175.505386,79.349724 185.207825,82.168304 
	C185.933609,82.379143 186.530579,83.033432 188.079773,84.090385 
	C184.590073,86.995514 181.484146,89.581146 178.079346,92.411072 
z"/>
<path fill="#F8F8F8" opacity="1.000000" stroke="none" 
	d="
M136.162811,90.968216 
	C139.807404,90.651093 143.185257,90.034752 146.413712,90.486427 
	C150.323685,91.033447 154.051407,92.891914 157.961441,93.427223 
	C161.824799,93.956146 165.817169,93.542786 169.777939,93.542786 
	C168.658783,101.468971 161.058670,107.575371 153.981476,105.619392 
	C145.910904,103.388870 138.079834,100.291695 129.203995,97.248642 
	C131.810211,94.846771 133.820053,92.994514 136.162811,90.968216 
z"/>
<path fill="#F3F2F2" opacity="1.000000" stroke="none" 
	d="
M121.082596,268.326416 
	C123.475510,262.730560 125.842697,257.552856 128.157730,252.489273 
	C137.861267,255.885941 140.822845,259.715393 138.831833,265.820404 
	C136.372086,265.167725 133.873413,264.514191 131.380051,263.840973 
	C127.400192,262.766449 124.987022,264.398010 123.693336,269.093719 
	C122.571922,273.164154 125.126373,274.008972 128.323456,275.020477 
	C131.581512,276.051270 134.548492,278.002014 137.639099,279.556091 
	C128.847092,284.962189 121.576340,280.217896 121.082596,268.326416 
z"/>
<path fill="#F6F6F6" opacity="1.000000" stroke="none" 
	d="
M180.168365,70.712967 
	C174.460083,68.990822 169.129669,67.380798 163.722321,65.747536 
	C166.448990,60.210762 168.968887,55.093826 171.973694,48.992241 
	C173.575012,51.458023 175.196854,53.429832 176.237610,55.671432 
	C178.185593,59.867100 179.858643,64.196114 181.473114,68.534027 
	C181.685165,69.103806 180.880157,70.052101 180.168365,70.712967 
z"/>
<path fill="#F8F7F7" opacity="1.000000" stroke="none" 
	d="
M131.585770,115.309395 
	C126.820770,114.691780 122.501251,114.101646 116.975067,113.346657 
	C120.924927,108.444313 123.913216,104.735413 126.718018,101.254250 
	C132.090607,105.860558 137.078506,110.137039 143.143356,115.336876 
	C138.730392,115.336876 135.380829,115.336876 131.585770,115.309395 
z"/>
<path fill="#F9F9F9" opacity="1.000000" stroke="none" 
	d="
M55.511055,259.751648 
	C56.657715,257.684784 57.362255,255.697876 58.697254,254.323257 
	C61.342796,251.599213 66.685822,253.398880 67.018288,257.424042 
	C67.369118,261.671539 66.487511,266.020813 66.129395,270.512848 
	C57.320934,268.370026 54.760315,265.637451 55.511055,259.751648 
z"/>
<path fill="#F7F7F7" opacity="1.000000" stroke="none" 
	d="
M82.699928,267.706299 
	C81.115074,267.669403 78.888710,267.735626 78.602264,267.022552 
	C77.420311,264.080109 75.992050,260.832092 76.241669,257.828278 
	C76.513634,254.555664 82.447067,251.398117 84.617584,252.448044 
	C87.431366,253.809189 88.412872,259.106110 86.371666,262.565277 
	C85.364334,264.272369 84.099030,265.827271 82.699928,267.706299 
z"/>
<path fill="#F6F5F5" opacity="1.000000" stroke="none" 
	d="
M185.352966,107.417770 
	C186.760284,109.244720 187.980652,110.723679 189.201019,112.202629 
	C189.079193,112.671272 188.957367,113.139908 188.835556,113.608551 
	C184.867111,112.814384 180.494995,112.768372 177.089539,110.930855 
	C175.203659,109.913277 173.469772,105.244652 174.295410,103.394569 
	C175.414322,100.887306 179.053635,99.504829 182.382355,97.078087 
	C183.598907,101.444778 184.382477,104.257271 185.352966,107.417770 
z"/>
<path fill="#EEEDED" opacity="1.000000" stroke="none" 
	d="
M169.142548,36.070637 
	C169.678818,35.334129 170.701340,34.539032 170.812363,34.650635 
	C177.291763,41.164188 182.006409,48.682732 183.724319,57.879436 
	C176.772919,52.133808 172.494781,44.617920 169.142548,36.070637 
z"/>
<path fill="#F5F5F5" opacity="1.000000" stroke="none" 
	d="
M91.103683,272.776001 
	C88.612778,268.259979 91.453941,265.877106 94.516647,264.758881 
	C95.712395,264.322296 98.753387,266.609070 99.733360,268.344635 
	C102.798538,273.773132 97.395309,275.218140 94.571716,278.585968 
	C93.252861,276.426971 92.243904,274.775299 91.103683,272.776001 
z"/>
<path fill="#F3F2F2" opacity="1.000000" stroke="none" 
	d="
M127.369202,267.798676 
	C132.500397,267.173859 136.257980,268.316864 137.708237,274.651794 
	C133.628433,272.347046 128.873322,272.794952 127.369202,267.798676 
z"/>
<path fill="#FFFFFF" opacity="1.000000" stroke="none" 
	d="
M321.119629,330.011658 
	C303.318665,315.595001 300.788300,289.846252 314.413513,271.278687 
	C320.993469,262.311951 330.796783,259.243073 341.458862,261.161102 
	C352.582123,263.162170 360.142792,270.373322 363.908264,280.948242 
	C369.137726,295.634674 368.039520,309.737274 359.040985,322.957458 
	C350.843445,335.000824 332.639343,338.911377 321.119629,330.011658 
z"/>
<path fill="#FFFFFF" opacity="1.000000" stroke="none" 
	d="
M596.979492,242.979309 
	C596.810242,241.182236 594.653625,240.311691 596.855896,238.221130 
	C600.856567,234.423431 604.082092,229.823700 607.828857,225.740189 
	C612.500122,220.649078 618.196350,223.944519 623.464966,224.250061 
	C625.921692,224.392517 628.337402,225.240341 630.771729,225.768448 
	C631.076416,226.268539 631.381165,226.768631 631.685913,227.268723 
	C625.066589,232.578186 618.447266,237.887634 613.373413,241.957458 
	C615.070374,237.783356 621.211609,233.894119 624.703125,228.172729 
	C614.190491,223.254227 609.549500,225.513565 597.450256,241.947128 
	C601.354431,242.940765 604.919739,243.848175 608.529236,244.766800 
	C602.587952,254.783157 605.203186,255.577621 593.113281,250.800552 
	C594.404785,248.303299 595.684204,245.829529 596.979492,242.979309 
z"/>
<path fill="#FFFFFF" opacity="1.000000" stroke="none" 
	d="
M308.326904,61.741280 
	C310.834656,78.580688 311.282990,94.980339 306.023621,111.087906 
	C302.782837,121.013351 297.463348,130.327286 292.268982,134.800430 
	C292.268982,99.575325 292.268982,64.579811 292.268982,28.539423 
	C300.646088,38.585323 306.083221,49.124199 308.326904,61.741280 
z"/>
<path fill="#FFFFFF" opacity="1.000000" stroke="none" 
	d="
M619.827148,317.018372 
	C632.858337,320.689758 645.476746,324.322968 658.079712,328.008698 
	C665.721802,330.243591 673.340088,332.559723 681.371521,334.959595 
	C680.446594,336.876648 679.781738,338.254761 679.062561,339.745514 
	C655.643311,333.069397 632.458191,326.460022 609.584900,319.939514 
	C609.352417,314.786621 612.232727,314.912567 615.700989,316.002686 
	C616.920837,316.386078 618.171326,316.671936 619.827148,317.018372 
z"/>
<path fill="#FFFFFF" opacity="1.000000" stroke="none" 
	d="
M568.258179,131.250580 
	C572.062866,127.104118 576.226318,126.138702 581.281433,127.705795 
	C586.729553,129.394699 589.652588,133.501907 590.839722,138.417114 
	C592.372925,144.765335 591.688232,150.905472 587.161377,156.496033 
	C581.257996,163.786758 570.486511,162.248795 565.750916,153.427856 
	C561.471130,145.455872 562.411255,138.443253 568.258179,131.250580 
z"/>
<path fill="#FFFFFF" opacity="1.000000" stroke="none" 
	d="
M466.699463,157.789154 
	C454.478119,164.900314 444.160950,158.884232 443.942413,145.164124 
	C443.828278,137.995560 445.582031,131.933029 452.218750,128.339874 
	C458.942932,124.699371 467.108032,128.235153 470.044922,135.434387 
	C473.332306,143.492767 472.369873,150.766052 466.699463,157.789154 
z"/>
<path fill="#FFFFFF" opacity="1.000000" stroke="none" 
	d="
M384.185730,134.474808 
	C390.473083,125.631805 397.002533,125.467468 403.015778,128.989746 
	C408.426331,132.158997 411.629608,142.085068 409.468658,149.048996 
	C406.735291,157.857513 402.396637,161.374298 394.749878,161.001785 
	C387.853363,160.665802 382.616699,153.876785 382.154724,146.179138 
	C381.930786,142.447723 383.343079,138.618118 384.185730,134.474808 
z"/>
<path fill="#FFFFFF" opacity="1.000000" stroke="none" 
	d="
M626.161011,137.548676 
	C629.045837,134.112183 631.234375,129.978760 634.646545,128.221710 
	C642.031372,124.418968 648.669617,128.766159 651.813782,136.017212 
	C654.370361,141.913284 654.323730,152.777985 647.171509,158.444672 
	C642.885254,161.840683 635.982117,162.200790 631.994324,158.503815 
	C625.902893,152.856613 623.386536,146.130081 626.161011,137.548676 
z"/>
<path fill="#FFFFFF" opacity="1.000000" stroke="none" 
	d="
M518.090454,138.000000 
	C515.161926,138.000000 512.714600,138.000000 510.205078,138.000000 
	C511.888275,129.417343 518.394592,126.568192 522.510132,127.036911 
	C526.738037,127.518448 530.705750,132.652130 530.861633,138.000000 
	C526.761292,138.000000 522.666504,138.000000 518.090454,138.000000 
z"/>
<path fill="#FFFFFF" opacity="1.000000" stroke="none" 
	d="
M565.003296,396.958588 
	C564.173828,400.596680 563.387634,403.803436 562.560547,407.176941 
	C557.724670,406.203644 555.288391,403.739258 554.895691,398.901581 
	C554.682434,396.274597 553.024292,393.778748 552.714111,391.141876 
	C552.412903,388.580231 552.551819,385.755920 553.393311,383.361877 
	C553.799500,382.206299 556.980347,380.724030 557.669861,381.195587 
	C560.637695,383.225128 563.862305,385.518768 565.568237,388.524933 
	C566.670837,390.468018 565.305847,393.811401 565.003296,396.958588 
z"/>
<path fill="#545454" opacity="1.000000" stroke="none" 
	d="
M93.791885,172.304047 
	C93.398872,168.571091 93.053123,165.283783 92.707382,161.996475 
	C93.248291,161.917847 93.789207,161.839218 94.330116,161.760574 
	C96.558060,175.517715 98.786011,189.274857 101.013954,203.031998 
	C100.263794,203.157303 99.513634,203.282608 98.763466,203.407913 
	C97.122032,193.188492 95.480598,182.969086 93.791885,172.304047 
z"/>
</svg>