<svg width="64mm" height="48mm" version="1.1" viewBox="0 0 64 48" xmlns="http://www.w3.org/2000/svg">
 <g transform="translate(-60.968 -97.419)">
  <path d="m114.73 113.99h-1.2004v-0.6302q-0.87532 0.70022-1.9007 0.70022-1.3255 0-2.2508-0.86359-0.95034-0.84025-0.95034-2.124 0-1.2604 0.95034-2.1473 0.92534-0.86359 2.2508-0.86359 1.1254 0 1.9007 0.72355v-0.65353h1.2004zm-3.1011-1.2137q0.80029 0 1.2755-0.51349 0.47518-0.46681 0.47518-1.1904 0-0.70021-0.47518-1.2137-0.50018-0.49015-1.2755-0.49015t-1.2504 0.49015q-0.50018 0.53682-0.50018 1.2137 0 0.67686 0.50018 1.1904 0.47517 0.51349 1.2504 0.51349zm-4.2765 1.237h-1.4505v-0.5835q-0.72526 0.65353-1.7506 0.65353-1.3505 0-2.2008-0.86359-0.90033-0.84025-0.90033-2.1473 0-1.2604 0.90033-2.1473 0.8503-0.86359 2.2008-0.86359 1.0004 0 1.7506 0.7002v-11.32h1.4505zm-3.1011-1.237q0.80029 0 1.2755-0.51349 0.47517-0.46681 0.47517-1.1904 0-0.70021-0.47517-1.2137-0.50018-0.49015-1.2755-0.49015-0.80028 0-1.2754 0.49015-0.50018 0.53682-0.50018 1.2137 0 0.67686 0.50018 1.1904 0.47517 0.51349 1.2754 0.51349zm-8.178-1.1437q0.10003 0.39677 0.40014 0.67686 0.22508 0.2334 0.5502 0.3501 0.32512 0.11671 0.65024 0.11671 0.87532 0 1.4505-0.32677v1.2604q-0.65024 0.3501-1.4505 0.3501-1.3255 0-2.1508-0.86359-0.85031-0.79357-0.85031-2.124 0-1.2604 0.85031-2.124 0.40014-0.42011 0.95034-0.63018 0.5502-0.21006 1.1254-0.21006 1.0754 0 1.8257 0.67687 0.75027 0.65352 0.75027 1.6572v1.1904zm1.5506-2.264q-0.57521 0-1.0004 0.32676-0.40014 0.32677-0.52519 0.79357h2.726q0.02501-0.3501-0.32512-0.72354-0.35013-0.39679-0.87532-0.39679zm-4.5516 4.6447h-1.4505v-0.5835q-0.72526 0.65353-1.7506 0.65353-1.3505 0-2.2008-0.86359-0.90032-0.84025-0.90032-2.1473 0-1.2604 0.90032-2.1473 0.85031-0.86359 2.2008-0.86359 1.0004 0 1.7506 0.7002v-11.32h1.4505zm-3.1011-1.237q0.80029 0 1.2755-0.51349 0.47517-0.46681 0.47517-1.1904 0-0.70021-0.47517-1.2137-0.50018-0.49015-1.2755-0.49015-0.80029 0-1.2755 0.49015-0.50018 0.53682-0.50018 1.2137 0 0.67686 0.50018 1.1904 0.47517 0.51349 1.2755 0.51349zm-4.2765 1.2137h-1.2004v-0.6302q-0.87532 0.70022-1.9007 0.70022-1.3255 0-2.2508-0.86359-0.95034-0.84025-0.95034-2.124 0-1.2604 0.95034-2.1473 0.92533-0.86359 2.2508-0.86359 1.1254 0 1.9007 0.72355v-0.65353h1.2004zm-3.1011-1.2137q0.80029 0 1.2755-0.51349 0.47517-0.46681 0.47517-1.1904 0-0.70021-0.47517-1.2137-0.50018-0.49015-1.2755-0.49015-0.77528 0-1.2505 0.49015-0.50018 0.53682-0.50018 1.2137 0 0.67686 0.50018 1.1904 0.47517 0.51349 1.2505 0.51349zm-3.6513-3.3143q-0.37514-0.16337-0.97535-0.16337-0.52519 0-0.8253 0.32675-0.30011 0.3501-0.30011 0.91027v3.4544h-1.4505v-5.8351h1.4505v0.51348q0.50018-0.60684 1.4755-0.60684 0.2751 0 0.62522 0.07zm-10.304 7.3988v-19.442q2.701 1.0036 4.0014 3.0342 1.2755 2.0773 1.2755 4.6447 0 1.9372-1.0254 3.8511-1.0004 1.8439-2.751 3.2443v4.668zm1.5005-6.4419q2.3258-2.1006 2.2758-5.3216 0-1.9839-0.70025-3.291-0.72526-1.3537-1.5756-2.0073zm23.318 12.02q-0.79632-0.34682-2.0704-0.34682-1.1148 0-1.7519 0.69364-0.63706 0.74318-0.63706 1.9323v7.3327h-3.0791v-12.386h3.0791v1.09q1.0618-1.2882 3.1322-1.2882 0.58397 0 1.3272 0.14863zm-11.414 9.6118h-2.5482v-1.3377q-1.8581 1.4864-4.0347 1.4864-2.8137 0-4.7779-1.8332-2.0173-1.7836-2.0173-4.5086 0-2.6755 2.0173-4.5582 1.9643-1.8332 4.7779-1.8332 2.389 0 4.0347 1.5359v-1.3873h2.5482zm-6.5829-2.5764q1.6988 0 2.7075-1.09 1.0087-0.99091 1.0087-2.5268 0-1.4864-1.0087-2.5764-1.0618-1.0405-2.7075-1.0405-1.6457 0-2.6544 1.0405-1.0618 1.1396-1.0618 2.5764t1.0618 2.5268q1.0087 1.09 2.6544 1.09zm-11.308 6.0446h4.247v2.6259h-7.4323v-40.726h3.1853zm53.151 7.5908 4.9709-2.316 0.0548-0.31881c0.31047-1.8078 0.94967-8.4098 0.82548-8.5257-0.046-0.0428-0.94136 0.20674-2.4487 0.6826-2.0397 0.64388-3.4123 1.0966-7.4624 2.4615-0.37576 0.12664-0.72591 0.26141-0.77809 0.2995-0.0671 0.049-0.0945 0.33105-0.0936 0.96387 7.8e-4 0.49205-0.0392 2.7048-0.0891 4.9171-0.0553 2.4566-0.063 4.0477-0.0203 4.0872 0.0424 0.0392 2.0294-0.84821 5.041-2.2513zm-6.3143 2.2071c0.0444-0.0783 0.0963-2.0916 0.12973-5.0209 0.0467-4.1073 0.0392-4.9027-0.0486-4.9682-0.11776-0.088-6.7646-2.157-6.8059-2.1184-0.0147 0.0137 9e-3 1.3251 0.0531 2.9143 0.0439 1.5892 0.0699 2.8984 0.0582 2.9094-0.0118 0.0109-0.99328-0.33887-2.1812-0.77742l-2.1598-0.79737-0.04867-0.88278c-0.02676-0.48554-0.07468-1.7383-0.10662-2.7838l-0.0577-1.901-0.19483-0.0692c-0.28164-0.0999-3.4961-0.98873-4.8229-1.3335-0.92352-0.23999-1.1481-0.27703-1.2213-0.20142-0.06602 0.0683-0.07367 0.32655-0.02867 0.97824 0.15258 2.2138 0.70634 7.2144 0.80951 7.3108 0.03131 0.0292 0.92743 0.4008 1.9912 0.82559 2.635 1.0523 4.4254 1.7959 9.7531 4.0509 2.5051 1.0603 4.6116 1.9431 4.6811 1.9617 0.073 0.0195 0.15757-0.0213 0.20031-0.0968zm-7.2297-7.7644c-0.0232-0.36044-0.063-1.5354-0.0888-2.6111l-0.0467-1.9558-1.0354-0.30409c-0.56951-0.16724-1.2883-0.37807-1.5973-0.46851l-0.56182-0.16444 0.0501 1.6096c0.0276 0.88528 0.0716 2.0272 0.0978 2.5377l0.0477 0.92813 1.5268 0.54347c0.83972 0.29891 1.5545 0.54278 1.5883 0.54193 0.0339-6.1e-4 0.0426-0.29641 0.0194-0.65685zm-1.7821-1.2278c-0.31948-0.1193-0.46231-0.35274-0.46231-0.75553 0-0.1148-0.0726-0.30378-0.16113-0.41994-0.64539-0.84589 0.0821-1.6759 1.0284-1.1733 0.59504 0.31604 0.82207 1.1081 0.42942 1.4982-0.11158 0.11089-0.15804 0.25033-0.15804 0.47479 0 0.49048-0.14846 0.57298-0.67638 0.37585zm19.459-4.7275c0.24736-0.0854 0.46138-0.18853 0.47561-0.22929 0.0148-0.0425-0.59052-0.22089-1.4176-0.41784-0.79391-0.18905-1.4435-0.35623-1.4435-0.37149 0-0.0152 0.0663-0.14923 0.14749-0.29763l0.14751-0.26983 1.5416 0.37796c0.84785 0.20789 1.6013 0.37839 1.6744 0.37892 0.22749 3e-3 0.14662-0.18397-0.19344-0.44403-0.25744-0.19685-0.50971-0.2948-1.1956-0.46414-0.47813-0.11803-1.3818-0.3417-2.008-0.49703-6.1892-1.5351-11.572-2.7922-14.337-3.3481-0.24502-0.0493-0.50515-0.13945-0.57809-0.20041-0.12811-0.10705-1.0282-1.4475-2.8098-4.1845-0.46923-0.72087-0.8626-1.3206-0.87416-1.3327-0.0651-0.0681-0.87205-0.0949-0.87205-0.0291 0 0.0768 1.1955 1.9834 2.9417 4.6915l0.98222 1.5232 0.97731 0.19856c0.53754 0.10922 0.9924 0.21263 1.0108 0.22984 0.0546 0.051-0.2461 0.52802-0.33279 0.52802-0.0439 0-0.59686-0.1064-1.229-0.23635l-1.1493-0.23634-1.0501 0.30012c-3.5344 1.0101-7.6327 2.2186-7.6829 2.2655-0.02054 0.0192-0.0055 0.0614 0.0336 0.094 0.09276 0.0776 0.78999 0.2521 0.9593 0.24019 0.07258-5e-3 0.73924-0.1835 1.4816-0.39642 5.5871-1.6026 6.1976-1.7631 6.5415-1.7191 0.93152 0.11915 9.0696 1.9568 15.077 3.4045 1.3778 0.33204 2.5563 0.60223 2.619 0.60039 0.0625-3e-3 0.31626-0.0731 0.56361-0.1585zm-8.5463-2.4461c-1.8514-0.42744-3.7078-0.85032-4.1253-0.9397-0.41752-0.0894-0.77301-0.17187-0.78997-0.1833-0.0171-0.0115 0.0307-0.14803 0.10581-0.30363 0.10949-0.22671 0.16844-0.27603 0.29654-0.24828 2.2673 0.49092 8.2478 1.8693 8.3392 1.922 0.0932 0.0539-0.26453 0.60009-0.36859 0.56283-0.0504-0.0179-1.6064-0.38253-3.4577-0.80997zm10.639 1.0183c0.20051-0.49222 0.71972-2.4153 0.98577-3.6513 0.39067-1.8149 0.47869-2.5424 0.44643-3.6898-0.0248-0.88087-0.0417-0.97449-0.23088-1.2748-0.35989-0.57135-0.87057-1.0366-1.4095-1.2843-0.44706-0.2054-0.58877-0.23408-1.2727-0.25772-0.87498-0.0303-1.6178 0.11009-2.7191 0.51357-1.2522 0.45877-3.3901 1.6052-3.3901 1.8179 0 0.1682 7.1844 7.9609 7.3644 7.9879 0.10443 0.0158 0.1736-0.0338 0.22569-0.16163zm-15.507-8.6775c0.61188-0.71972 0.60762-0.71234 0.41221-0.71234-0.0845 0-0.17193-0.0277-0.19426-0.0614-0.0223-0.0337 0.33195-0.40035 0.78726-0.81474 0.45534-0.41437 0.82172-0.75555 0.81421-0.75814-7e-3 -3e-3 -0.33249-0.0438-0.72223-0.0918-0.69288-0.085-0.71394-0.0833-0.94891 0.0768-0.25325 0.17268-1.5032 1.3087-1.472 1.3379 0.0104 0.01 0.32169 0.0664 0.6926 0.12685 0.37094 0.0605 0.68977 0.12418 0.70853 0.14169 0.0186 0.0174-0.1475 0.24332-0.36945 0.5018-0.31662 0.36876-0.43667 0.46172-0.55724 0.43152-0.0845-0.0211-0.35862-0.0752-0.60915-0.11992-0.25049-0.0447-0.4855-0.10672-0.5222-0.13771-0.0367-0.0309 0.0736-0.24085 0.24518-0.46661 0.26205-0.34476 0.29323-0.42013 0.19497-0.47146-0.0644-0.0336-0.16609-0.0434-0.22616-0.022-0.10327 0.037-0.86841 1.07-0.86841 1.1724 0 0.0264 0.47696 0.1436 1.0599 0.26048l1.0599 0.21248zm8.0306-0.0357c1.1089-0.64884 2.8215-1.4521 3.6438-1.7091 0.33401-0.10436 0.8635-0.21052 1.1766-0.23586l0.56934-0.046-0.37957-0.11937c-2.6606-0.83674-13.576-2.5984-16.245-2.6219-0.91165-7e-3 -1.1733 0.0667-2.3775 0.67864-1.2723 0.64661-2.9959 1.8971-2.8722 2.0838 0.02867 0.0432 0.248 0.0993 0.48743 0.12453 0.93375 0.0982 3.9824 0.48176 5.0253 0.63219l1.098 0.15836 0.76182-0.71816c0.41898-0.39498 0.90237-0.80544 1.0742-0.91215l0.3124-0.19401 1.2415 0.14849c0.68285 0.0816 1.2501 0.15649 1.2606 0.16626 0.0104 0.01-0.2856 0.25103-0.65793 0.53612-0.73505 0.56286-1.5481 1.3282-1.4607 1.375 0.03 0.016 0.22532 0.0519 0.43408 0.0797 0.28292 0.0377 4.3848 0.79339 5.8452 1.077 0.0958 0.0186 0.48784-0.16709 1.0628-0.5035z" stroke-width="1.7703"/>
 </g>
</svg>
